<svg width="30" height="30" fill="none" xmlns="http://www.w3.org/2000/svg"><path fill-rule="evenodd" clip-rule="evenodd" d="M30 0H0v30h30V0zM9.353 15a5.636 5.636 0 015.644-5.644A5.636 5.636 0 0120.641 15a5.636 5.636 0 01-5.644 5.644A5.636 5.636 0 019.353 15zm1.976 0a3.676 3.676 0 003.668 3.668A3.676 3.676 0 0018.665 15a3.676 3.676 0 00-3.668-3.668A3.676 3.676 0 0011.329 15zm8.225-5.872a1.317 1.317 0 012.25-.933 1.318 1.318 0 11-2.25.933zm6.445 5.316a514.116 514.116 0 000 1.177c.002 1.31.004 2.61-.072 3.92-.085 1.76-.484 3.321-1.775 4.612-1.288 1.288-2.85 1.69-4.612 1.775-1.33.075-2.654.073-3.985.072a513.746 513.746 0 00-1.11 0c-1.329.001-2.652.003-3.986-.072-1.76-.086-3.321-.485-4.612-1.775-1.288-1.288-1.69-2.851-1.775-4.612C3.997 18.209 4 16.884 4 15.555v-1.11c-.001-1.329-.003-2.652.072-3.986.086-1.76.485-3.321 1.775-4.612 1.288-1.288 2.851-1.69 4.612-1.775C11.791 3.997 13.113 4 14.444 4h1.11c1.33-.001 2.653-.003 3.986.072 1.761.086 3.322.485 4.612 1.775 1.288 1.288 1.69 2.851 1.775 4.612.075 1.332.074 2.654.072 3.985zm-3.253 8.305c.388-.385.63-.76.831-1.26.495-1.245.468-3.961.451-5.718a82.994 82.994 0 01-.005-.771c0-.225.003-.487.005-.774.018-1.757.044-4.473-.448-5.718a3.52 3.52 0 00-.831-1.26 3.497 3.497 0 00-1.26-.831c-1.245-.492-3.961-.466-5.718-.448a83.78 83.78 0 01-.774.005c-.225 0-.487-.003-.774-.005-1.757-.018-4.473-.044-5.717.448-.501.2-.873.446-1.26.831-.389.385-.631.76-.832 1.26-.492 1.245-.465 3.961-.448 5.718a76.548 76.548 0 010 1.548c-.017 1.756-.044 4.471.448 5.718.201.5.443.872.831 1.26.385.388.76.63 1.26.831 1.245.492 3.961.466 5.718.448.287-.002.549-.005.774-.005.225 0 .485.003.771.005 1.757.018 4.473.044 5.718-.45.5-.202.872-.444 1.26-.832z" fill="#fff"/></svg>