<svg width="170" height="50" fill="none" xmlns="http://www.w3.org/2000/svg"><path d="M163.731 49.499v0H6.278a5.694 5.694 0 01-4.101-1.684A5.754 5.754 0 01.5 43.691h0V6.318a5.93 5.93 0 011.724-4.086A5.869 5.869 0 016.287.502h157.435a5.693 5.693 0 014.101 1.683l.355-.353-.355.353c.539.54.964 1.184 1.252 1.892.288.708.432 1.467.425 2.232v37.507a5.671 5.671 0 01-1.687 4.072 5.61 5.61 0 01-4.082 1.61z" stroke="#fff"/><path d="M59.948 14.848a4.057 4.057 0 01-.882 2.518 3.905 3.905 0 01-6.675-2.77 3.87 3.87 0 013.904-3.904 3.352 3.352 0 011.512.377c.377 0 .755.378 1.133.63l-.63.63a2.442 2.442 0 00-2.14-.882 2.505 2.505 0 00-2.016.882 2.594 2.594 0 00-.881 2.14 2.597 2.597 0 00.881 2.142c.549.52 1.262.831 2.015.881a2.763 2.763 0 002.141-.881 2.085 2.085 0 00.63-1.512h-2.77v-.881h3.652c0 .252.126.378.126.63zm5.792-3.15h-3.4v2.393h3.149v.882H62.34v2.393h3.4v.881h-4.407v-7.43h4.408v.881zm4.031 6.549h-1.008v-6.549h-2.14v-.881h5.163v.881h-2.14v6.55h.125zm5.919 0v-7.43h1.008v7.43H75.69zm5.29 0h-1.008v-6.549h-2.14v-.881h5.163v.881h-2.141c.126 0 .126 6.55.126 6.55zm11.964-1.007a3.905 3.905 0 01-6.675-2.77 3.905 3.905 0 017.809 0 3.703 3.703 0 01-1.134 2.77zm-4.786-.63c.535.54 1.256.856 2.016.882a2.505 2.505 0 002.014-.882 3.04 3.04 0 00.882-2.14 2.594 2.594 0 00-.881-2.142 2.972 2.972 0 00-2.015-.881 2.505 2.505 0 00-2.016.881 3.038 3.038 0 00-.881 2.141 2.594 2.594 0 00.881 2.141zm7.305 1.637v-7.43h1.133l3.653 5.793v-5.793h1.007v7.43h-1.007l-3.904-6.045v6.045h-.882z" fill="#fff" stroke="#fff" stroke-width=".16" stroke-miterlimit="10"/><path d="M86.017 29.205a5.29 5.29 0 105.416 5.29 5.194 5.194 0 00-5.416-5.29zm0 8.438a3.285 3.285 0 010-6.549 3.05 3.05 0 013.023 3.274 3.05 3.05 0 01-3.023 3.275zm-11.712-8.438a5.29 5.29 0 105.415 5.29 5.194 5.194 0 00-5.415-5.29zm0 8.438a3.285 3.285 0 010-6.549 3.05 3.05 0 013.023 3.274 3.052 3.052 0 01-3.023 3.275zm-13.98-6.8v2.266h5.416a4.395 4.395 0 01-1.26 2.77 5.575 5.575 0 01-4.155 1.638 5.863 5.863 0 01-5.92-6.045 5.941 5.941 0 015.92-6.045c1.54.014 3.02.597 4.156 1.637l1.637-1.637a8.07 8.07 0 00-5.667-2.267 8.308 8.308 0 00-8.438 8.186 8.387 8.387 0 008.438 8.186 7.337 7.337 0 007.808-7.556 4.721 4.721 0 00-.126-1.386c-.126.252-7.808.252-7.808.252zm57.177 1.636a5.092 5.092 0 00-4.659-3.4 5.033 5.033 0 00-4.73 3.284 5.056 5.056 0 00-.308 2.005 5.162 5.162 0 003.245 4.922 5.17 5.17 0 002.045.368 5.426 5.426 0 004.533-2.393l-1.889-1.26a3.072 3.072 0 01-2.644 1.512 2.853 2.853 0 01-2.645-1.637l7.178-2.897c.126.126-.126-.504-.126-.504zm-7.304 1.763a3.06 3.06 0 012.771-3.148 2.23 2.23 0 012.015 1.133c0 .126-4.786 2.015-4.786 2.015zm-5.793 5.164h2.393v-15.49h-2.393v15.49zm-3.904-9.068a4.08 4.08 0 00-2.897-1.133 5.383 5.383 0 00-5.164 5.29 5.296 5.296 0 005.164 5.289 3.25 3.25 0 002.771-1.26h.126v.756a2.865 2.865 0 01-4.222 2.798 2.863 2.863 0 01-1.32-1.539l-2.015.882a5.196 5.196 0 004.786 3.148c2.771 0 5.163-1.637 5.163-5.54v-9.572h-2.392v.881zm-2.771 7.305a3.093 3.093 0 01-3.023-3.149 3.126 3.126 0 013.023-3.274 3.03 3.03 0 012.896 3.274 2.914 2.914 0 01-2.896 3.149zm30.855-13.728h-5.667v15.491h2.393v-5.92h3.274a4.953 4.953 0 004.721-2.89c.271-.596.422-1.24.443-1.895a4.948 4.948 0 00-1.58-3.474 4.946 4.946 0 00-3.584-1.312zm0 7.43h-3.4v-5.289h3.4a2.643 2.643 0 012.557 1.604 2.645 2.645 0 01-2.557 3.686zm14.609-2.266a4.232 4.232 0 00-4.156 2.393l2.141.881a2.224 2.224 0 012.141-1.133 2.289 2.289 0 012.519 2.015v.126a5.142 5.142 0 00-2.519-.63c-2.267 0-4.534 1.26-4.534 3.526a3.595 3.595 0 002.478 3.24c.46.148.945.203 1.426.16a3.374 3.374 0 003.023-1.51h.126v1.259h2.267v-6.045a4.578 4.578 0 00-1.557-3.173 4.557 4.557 0 00-3.355-1.11zm-.252 8.564c-.755 0-1.889-.378-1.889-1.26 0-1.259 1.385-1.637 2.519-1.637a4.87 4.87 0 012.141.504 2.936 2.936 0 01-2.771 2.393zm13.35-8.186l-2.645 6.8h-.126l-2.77-6.8h-2.519l4.156 9.445-2.393 5.29h2.519l6.423-14.735h-2.645zm-21.284 9.949h2.393v-15.49h-2.393v15.49z" fill="#fff"/><path d="M13.224 9.447a2.492 2.492 0 00-.63 1.763v27.58a2.5 2.5 0 00.63 1.764l.126.126 15.617-15.49v-.379L13.224 9.447z" fill="url(#paint0_linear)"/><path d="M34.13 30.353l-5.163-5.163v-.378l5.163-5.164.126.126 6.171 3.527c1.763 1.007 1.763 2.644 0 3.652l-6.297 3.4z" fill="url(#paint1_linear)"/><path d="M34.256 30.227l-5.29-5.29-15.742 15.617c.63.63 1.511.63 2.645.125l18.387-10.453z" fill="url(#paint2_linear)"/><path d="M34.256 19.648L15.87 9.32a2.041 2.041 0 00-2.645.126l15.743 15.49 5.29-5.29z" fill="url(#paint3_linear)"/><defs><linearGradient id="paint0_linear" x1="27.549" y1="39.062" x2="6.612" y2="17.877" gradientUnits="userSpaceOnUse"><stop stop-color="#00A0FF"/><stop offset=".007" stop-color="#00A1FF"/><stop offset=".26" stop-color="#00BEFF"/><stop offset=".512" stop-color="#00D2FF"/><stop offset=".76" stop-color="#00DFFF"/><stop offset="1" stop-color="#00E3FF"/></linearGradient><linearGradient id="paint1_linear" x1="42.749" y1="25.001" x2="12.203" y2="25.001" gradientUnits="userSpaceOnUse"><stop stop-color="#FFE000"/><stop offset=".409" stop-color="#FFBD00"/><stop offset=".775" stop-color="orange"/><stop offset="1" stop-color="#FF9C00"/></linearGradient><linearGradient id="paint2_linear" x1="20.853" y1="32.505" x2="-7.54" y2="3.777" gradientUnits="userSpaceOnUse"><stop stop-color="#FF3A44"/><stop offset="1" stop-color="#C31162"/></linearGradient><linearGradient id="paint3_linear" x1="-1.275" y1="39.301" x2="11.404" y2="26.473" gradientUnits="userSpaceOnUse"><stop stop-color="#32A071"/><stop offset=".069" stop-color="#2DA771"/><stop offset=".476" stop-color="#15CF74"/><stop offset=".801" stop-color="#06E775"/><stop offset="1" stop-color="#00F076"/></linearGradient></defs></svg>