<svg width="250" height="32" fill="none" xmlns="http://www.w3.org/2000/svg"><path d="M12.695 2.008c-.027.535-.322.963-.884 1.311-.482.295-1.017.429-1.606.429a1.93 1.93 0 01-1.07-.295c-.349-.24-.51-.535-.51-.937.027-.535.322-.963.884-1.311a3.143 3.143 0 011.606-.429c.402 0 .75.107 1.071.295.348.24.535.535.509.937zm5.621 15.767c1.125-2.141 1.714-4.256 1.767-6.317.107-3.99-1.552-5.97-4.952-5.917-1.526 0-2.865.616-4.043 1.847-1.177 1.232-1.793 2.57-1.847 3.962-.053.964.161 1.767.616 2.383.455.67 1.124.99 1.981.99.402 0 .857-.08 1.339-.24.32-.108.374-.295.16-.59-.723-1.097-1.07-2.329-1.044-3.694 0-.776.16-1.419.429-1.954.267-.535.588-.83.963-.857.428-.026.75.348 1.017 1.178.268.857.402 2.062.348 3.587a15.389 15.389 0 01-2.141 7.442c-1.392 2.356-2.918 3.56-4.631 3.641-1.098.054-1.874-.402-2.302-1.365-.348-.776-.482-1.9-.429-3.453.08-1.714.509-3.614 1.339-5.702.83-2.062 1.74-3.587 2.757-4.551.214-.214.321-.348.321-.402 0-.08-.08-.187-.24-.294-.322-.241-.643-.321-.938-.241-2.49.75-4.577 2.275-6.264 4.631C.916 14.108.086 16.49.006 18.953c-.134 4.417 2.008 6.639 6.451 6.639 2.624 0 5.033-.776 7.201-2.33 1.928-1.391 3.48-3.212 4.658-5.487zm7.737.669c1.686-1.338 2.918-2.49 3.72-3.453.06-.117.09-.305.132-.575.016-.1.034-.212.056-.335-.027-.455-.134-.67-.321-.616a10.94 10.94 0 01-1.874.214c-.589.027-1.419.027-2.543 0l-.55-.013h-.002c-.823-.021-1.396-.036-1.75-.014a2.165 2.165 0 00-1.58.75c-.482.509-.963 1.446-1.499 2.757l-.065.154a3.54 3.54 0 00-.122.302c-.054.053-.027.16.053.267.08.107.214.134.429.027a5.011 5.011 0 011.392-.402c.455-.053 1.445-.107 2.971-.16-.134.107-1.231 1.044-3.266 2.784-1.338 1.124-2.356 2.061-3.105 2.837-.107.107-.16.295-.16.59-.027.83.08 1.23.347 1.23.67-.026 1.874-.026 3.64.027 1.768.054 2.946.054 3.588.027.723-.026 1.285-.294 1.767-.776.535-.535 1.07-1.5 1.552-2.891.054-.16 0-.268-.133-.321a.71.71 0 00-.455.053c-.643.295-2.436.375-5.381.295.428-.509 1.472-1.42 3.159-2.758z" fill="#fff"/><path fill-rule="evenodd" clip-rule="evenodd" d="M29.64 18.712c.053-.75.107-1.231.16-1.472.054-.214.215-.482.51-.777.668-.776 1.605-1.392 2.837-1.874a9.832 9.832 0 013.667-.722c1.633 0 2.864.374 3.721 1.097.75.696 1.098 1.58 1.07 2.677-.053 1.714-.802 3.32-2.301 4.819-1.607 1.633-3.48 2.436-5.595 2.436-2.597 0-3.855-.696-3.828-2.115.027-1.338.83-2.463 2.355-3.373 1.42-.803 2.972-1.151 4.605-1.07.08-.268.134-.563.134-.804.026-1.044-.402-1.606-1.258-1.686-.857-.08-1.82.16-2.865.75-1.07.588-1.98 1.391-2.784 2.355-.107.134-.187.187-.268.187-.133 0-.187-.134-.16-.428zm4.444 3.212c-.104.233-.132.49-.158.725l-.003.025c-.027.509.134.75.428.75.777 0 1.5-1.285 2.169-3.829-.482.108-.937.348-1.366.696-.508.482-.856.99-1.07 1.633z" fill="#fff"/><path d="M48.325 14.349c1.098-3.186 2.034-5.167 2.784-5.943.16-.16.241-.268.188-.348 0-.16-.563-.241-1.714-.241-1.258 0-2.222.187-2.918.535-.696.348-1.231.964-1.606 1.794-1.258 2.73-2.329 6.05-3.212 9.985-.188.883-.295 1.633-.321 2.222-.027.883.16 1.525.562 1.927.401.402 1.044.589 1.98.589.83 0 1.794-.348 2.892-1.07 1.017-.67 1.927-1.527 2.757-2.544.241-.294.402-.562.455-.857.08-.267.107-.83.107-1.633.027-.24-.027-.374-.16-.374-.08 0-.161.08-.268.24-.83 1.259-1.66 2.223-2.49 2.919-.348.294-.615.455-.803.455-.214 0-.294-.188-.294-.536 0-.187.053-.428.134-.723.455-1.9 1.097-4.042 1.927-6.397zm80.951 4.818c.081.803-.053 1.446-.428 1.954-.776 1.071-1.767 1.955-2.918 2.704-1.151.723-2.249 1.098-3.239 1.098-1.58 0-2.356-.723-2.302-2.196 0-.24.026-.455.08-.696.107-.562.268-1.15.482-1.793l.318-.963c.134-.406.222-.674.271-.804.107-.428.187-.75.187-1.017 0-.402-.107-.616-.375-.616-.455 0-1.017.776-1.686 2.356-.294.75-.582 1.499-.87 2.248l-.001.003c-.288.749-.575 1.497-.869 2.246-.321.803-.964 1.205-1.954 1.205-.509 0-1.606-.107-3.293-.348a41.44 41.44 0 00.836-2.209c-.505.496-1.058.947-1.666 1.352-1.204.803-2.275 1.205-3.239 1.205-.723 0-1.258-.188-1.633-.536-.375-.348-.562-.963-.616-1.82-1.847 1.553-3.48 2.329-4.872 2.329-1.53 0-2.306-.703-2.304-2.134-.446.393-.929.755-1.443 1.09-1.151.723-2.249 1.098-3.24 1.098-1.579 0-2.355-.723-2.302-2.196 0-.24.027-.455.08-.696.108-.562.268-1.15.483-1.793l.317-.961v-.002c.134-.405.223-.674.271-.804.108-.428.188-.75.188-1.017 0-.402-.107-.616-.375-.616-.455 0-1.017.776-1.686 2.356-.294.748-.582 1.497-.87 2.245v.003c-.288.75-.576 1.5-.87 2.25-.322.802-.964 1.204-1.955 1.204-.508 0-1.606-.107-3.292-.348.29-.7.573-1.45.85-2.249-.516.512-1.083.976-1.707 1.392-1.205.803-2.275 1.205-3.24 1.205-.722 0-1.257-.188-1.632-.536-.375-.348-.562-.963-.616-1.82-1.847 1.553-3.48 2.329-4.872 2.329-1.58 0-2.356-.75-2.302-2.275 0-.456.107-.99.268-1.58.348-.937.83-2.302 1.392-4.042.107-.428.187-.776.187-1.098 0-.428-.08-.83-.267-1.15 1.284-.59 2.435-.857 3.453-.857 1.15 0 1.713.535 1.686 1.606 0 .24-.027.482-.107.75-.08.401-.321 1.177-.75 2.328-.562 1.5-.883 2.49-1.017 2.918-.24.696-.133 1.044.295 1.044.267 0 .642-.32 1.124-.963.482-.643.964-1.473 1.446-2.463.32-.67.669-1.58 1.017-2.704a3.825 3.825 0 00.107-1.82c1.07-.482 2.115-.696 3.105-.696 1.232 0 1.847.428 1.82 1.311 0 .348-.106.777-.267 1.285a201.982 201.982 0 00-1.74 4.953c-.107.375 0 .589.268.589.187 0 .428-.134.722-.375.75-.616 1.58-1.5 2.49-2.65.095-.11.177-.198.245-.258.079-.284.158-.573.237-.867.134-.535.214-1.017.214-1.392.027-.562-.08-1.017-.321-1.392 1.58-.803 2.944-1.204 4.042-1.204.91 0 1.312.508 1.205 1.526-.027.32-.134.75-.295 1.284 2.115-1.873 3.882-2.81 5.3-2.81 1.312 0 1.874.75 1.687 2.275-.08.59-.268 1.446-.616 2.543-.428 1.339-.669 2.195-.75 2.57l-.013.08c-.021.126-.04.233-.04.322 0 .267.08.401.214.401.188 0 .429-.134.75-.428a14.469 14.469 0 001.862-1.917c.269-.768.581-1.686.922-2.741.107-.428.187-.776.187-1.098 0-.428-.08-.83-.267-1.15 1.285-.59 2.436-.857 3.453-.857 1.151 0 1.713.535 1.686 1.606 0 .24-.026.482-.107.75-.08.401-.321 1.177-.749 2.328-.562 1.5-.884 2.49-1.017 2.918-.241.696-.134 1.044.294 1.044.268 0 .642-.32 1.124-.963.482-.643.964-1.473 1.446-2.463.321-.67.669-1.58 1.017-2.704a3.832 3.832 0 00.107-1.82c1.071-.482 2.115-.696 3.105-.696 1.232 0 1.848.428 1.821 1.311 0 .348-.107.777-.268 1.285a200.304 200.304 0 00-1.74 4.953c-.107.375 0 .589.268.589.187 0 .428-.134.723-.375.749-.616 1.579-1.5 2.489-2.65a3.6 3.6 0 01.209-.224c.082-.295.164-.595.246-.9.134-.536.214-1.018.214-1.393.027-.562-.08-1.017-.321-1.392 1.58-.803 2.945-1.204 4.042-1.204.91 0 1.312.508 1.205 1.526-.027.32-.134.75-.295 1.284 2.115-1.873 3.882-2.81 5.301-2.81 1.312 0 1.874.75 1.686 2.275-.08.59-.267 1.446-.615 2.543-.429 1.339-.67 2.195-.75 2.57l-.014.08c-.021.126-.039.233-.039.322 0 .267.08.401.214.401.187 0 .428-.134.749-.428.857-.723 1.687-1.633 2.49-2.73.134-.188.241-.268.321-.268.107 0 .187.187.214.535z" fill="#fff"/><path fill-rule="evenodd" clip-rule="evenodd" d="M71.588 14.563c-.348.348-.857 1.445-1.473 3.292-.508 1.473-1.15 3.695-1.927 6.693-1.151 4.337-4.069 6.505-8.754 6.505-1.58 0-2.784-.241-3.613-.75-.83-.508-1.232-1.204-1.205-2.088.027-.75.348-1.365.964-1.874a3.156 3.156 0 012.007-.696c.188 0 .268.027.321.054.027.027.027.134 0 .294a3.75 3.75 0 00-.133.884c-.027.723.16 1.338.589 1.767.401.455.937.642 1.552.615.884-.053 1.606-.508 2.195-1.392.59-.856 1.259-2.436 2.008-4.738a7.056 7.056 0 01-2.49 1.365c-.75.241-1.445.348-2.034.322-1.74-.134-2.57-1.178-2.516-3.16.053-1.766.856-3.506 2.382-5.166 1.66-1.793 3.56-2.677 5.675-2.677.777 0 1.473.241 2.088.696.482-.482 1.125-.696 1.981-.696.91.027 1.713.268 2.383.75zM66.1 16.008c.053-.16 0-.294-.134-.401a.748.748 0 00-.482-.16c-.482 0-1.097.642-1.847 1.9a15.39 15.39 0 00-1.686 3.881c-.107.429-.188.75-.188.964 0 .321.08.482.295.535.535.107 1.178-.535 1.98-1.9.75-1.285 1.42-2.891 2.062-4.819zm82.29 1.847c.615-1.847 1.124-2.944 1.472-3.292-.669-.482-1.445-.723-2.382-.75-.857 0-1.499.214-1.981.696a3.438 3.438 0 00-2.088-.696c-2.115 0-4.016.884-5.676 2.677-1.525 1.66-2.328 3.4-2.382 5.167-.054 1.98.776 3.025 2.516 3.159.589.026 1.285-.08 2.035-.322a7.047 7.047 0 002.489-1.365c-.749 2.302-1.418 3.882-2.007 4.738-.589.884-1.312 1.339-2.195 1.392-.616.027-1.152-.16-1.553-.616-.428-.428-.616-1.044-.589-1.766 0-.268.054-.562.134-.884.027-.16.027-.267 0-.294-.054-.027-.134-.054-.321-.054-.75 0-1.446.241-2.008.696-.616.509-.937 1.125-.964 1.874-.027.884.375 1.58 1.205 2.088.83.509 2.034.75 3.614.75 4.684 0 7.602-2.169 8.753-6.505.777-2.998 1.419-5.22 1.928-6.693zm-4.123-2.248c.134.107.188.24.134.401-.642 1.928-1.338 3.534-2.061 4.819-.803 1.365-1.446 2.007-1.981 1.9-.214-.053-.295-.214-.295-.535 0-.214.081-.535.188-.964.375-1.311.91-2.623 1.686-3.881.75-1.258 1.366-1.9 1.847-1.9.188 0 .348.053.482.16zm17.186 2.061c-.053 2.115-.963 3.882-2.73 5.247-1.66 1.312-3.587 1.98-5.782 1.98-2.918 0-4.337-1.284-4.257-3.88.054-2.089.991-3.829 2.838-5.194 1.686-1.285 3.614-1.954 5.809-1.954 2.837 0 4.203 1.258 4.122 3.801zm-4.551-1.365c.027-.536-.133-.777-.481-.777-.482 0-1.125.964-1.955 2.865-.829 1.927-1.258 3.266-1.231 4.096 0 .508.161.75.482.75.535 0 1.204-.965 2.008-2.865.749-1.794 1.124-3.16 1.177-4.07z" fill="#fff"/><path d="M168.628 18.82c1.686-1.286 2.917-2.383 3.72-3.32.071-.14.1-.363.142-.684v-.004l.001-.002.018-.14c-.027-.455-.134-.67-.321-.643-.509.08-1.124.134-1.874.134-.589 0-1.446-.027-2.543-.107a35.078 35.078 0 00-2.302-.107c-.616 0-1.151.241-1.58.696-.482.509-.963 1.419-1.499 2.704-.027.08-.06.154-.094.227-.033.074-.066.147-.093.228-.054.053-.027.16.053.268.081.107.215.107.429.026.401-.187.856-.294 1.392-.348.455-.027 1.445-.053 2.971-.053-.134.107-1.231.99-3.266 2.65a44.783 44.783 0 00-3.105 2.704c-.107.107-.161.294-.161.589-.026.83.081 1.231.348 1.231.67 0 1.874.054 3.641.16 1.767.108 2.945.161 3.587.161.723 0 1.285-.214 1.767-.696.535-.535 1.071-1.472 1.553-2.837.053-.161 0-.268-.134-.322-.134-.053-.268-.053-.455.027-.643.268-2.41.295-5.354.08.428-.481 1.472-1.338 3.159-2.623z" fill="#fff"/><path fill-rule="evenodd" clip-rule="evenodd" d="M172.215 18.712c.053-.75.107-1.231.16-1.472.054-.214.214-.482.509-.777.669-.776 1.606-1.392 2.838-1.874a9.829 9.829 0 013.667-.722c1.633 0 2.864.374 3.721 1.097.749.696 1.097 1.58 1.071 2.677-.054 1.714-.803 3.32-2.302 4.819-1.607 1.633-3.481 2.436-5.595 2.436-2.597 0-3.855-.696-3.828-2.115.026-1.338.829-2.463 2.355-3.373 1.419-.803 2.972-1.151 4.605-1.07.08-.268.134-.563.134-.804.026-1.044-.402-1.606-1.259-1.686-.856-.08-1.82.16-2.864.75-1.071.588-1.981 1.391-2.784 2.355-.107.134-.187.187-.268.187-.134 0-.187-.134-.16-.428zm4.443 3.212c-.103.233-.131.49-.157.725l-.003.025c-.027.509.134.75.428.75.776 0 1.499-1.285 2.168-3.829-.481.108-.936.348-1.365.696-.508.482-.856.99-1.071 1.633z" fill="#fff"/><path d="M190.632 14.349c1.098-3.186 2.035-5.167 2.784-5.943.134-.16.214-.268.188-.348 0-.16-.563-.241-1.714-.241-1.258 0-2.222.187-2.918.535-.696.348-1.231.964-1.606 1.794-1.258 2.73-2.329 6.05-3.212 9.985-.187.883-.295 1.633-.321 2.222-.027.883.16 1.525.562 1.927.401.402 1.044.589 1.981.589.83 0 1.793-.348 2.891-1.07 1.017-.67 1.927-1.527 2.757-2.544.241-.294.402-.562.455-.857.081-.267.107-.83.107-1.633.027-.24-.026-.374-.16-.374-.081 0-.161.08-.268.24-.83 1.259-1.66 2.223-2.49 2.919-.348.294-.615.455-.803.455-.214 0-.294-.188-.294-.536 0-.187.053-.428.134-.723.455-1.9 1.097-4.042 1.927-6.397z" fill="#fff"/><path fill-rule="evenodd" clip-rule="evenodd" d="M212.251 20.24c-.248.28-.513.565-.792.855-.883.91-1.499 1.365-1.794 1.365-.428 0-.535-.375-.348-1.125.188-.75.696-2.409 1.553-4.979.723-2.195 1.258-3.988 1.553-5.434.08-.375.134-.723.134-1.044.026-1.258-.509-1.9-1.633-1.9a9.862 9.862 0 00-4.016.856c.562.562.723 1.419.536 2.57a20.117 20.117 0 01-.563 2.597 8.232 8.232 0 00-1.418-.108c-1.821 0-3.534.777-5.167 2.33-1.686 1.579-2.57 3.4-2.677 5.407-.134 2.195.75 3.293 2.597 3.293 1.526 0 3.051-.67 4.604-2.008.428 1.338 1.339 2.008 2.731 2.008.963 0 1.954-.322 3.025-.991a10.432 10.432 0 001.557-1.217c.238 1.449 1.152 2.18 2.726 2.18 1.499 0 2.918-.668 4.31-1.953.401 1.311 1.284 1.954 2.677 1.954 1.56 0 3.038-.715 4.445-2.17.194 1.465 1.06 2.197 2.568 2.197 1.526 0 3.052-.67 4.604-2.008.429 1.338 1.339 2.008 2.731 2.008.964 0 1.954-.322 3.025-.991.527-.338 1.02-.717 1.476-1.14.075.545.285 1 .639 1.354.508.536 1.258.803 2.302.777 1.874-.027 3.748-1.178 5.648-3.48.268-.322.429-.59.509-.804.08-.24.134-.615.187-1.204.054-.643 0-.964-.187-.964-.08 0-.161.08-.268.214-.723.99-1.74 2.062-3.025 3.213-.348.32-.615.482-.803.482-.134 0-.214-.134-.214-.402 0-.188.08-.482.187-.857.75-2.114 1.312-3.667 1.687-4.658.134-.401.214-.75.214-1.07.027-1.018-.535-1.526-1.686-1.526a9.589 9.589 0 00-3.427.642c.295.562.295 1.258.027 2.061l-.306.83a339.96 339.96 0 01-.879 2.367c-.359.43-.76.874-1.198 1.328-.883.91-1.499 1.365-1.793 1.365-.429 0-.536-.375-.348-1.125.187-.75.696-2.409 1.552-4.979.723-2.195 1.259-3.988 1.553-5.434.08-.375.134-.723.134-1.044.027-1.258-.509-1.9-1.633-1.9a9.862 9.862 0 00-4.016.856c.563.562.723 1.419.536 2.57a20.1 20.1 0 01-.562 2.597 8.236 8.236 0 00-1.419-.108c-1.82 0-3.534.777-5.167 2.33-1.224 1.146-2.026 2.42-2.414 3.801-.664.8-1.34 1.472-2.029 2.034-.241.214-.455.321-.616.321-.214 0-.294-.187-.294-.562 0-.24.053-.508.133-.803.348-1.258.75-2.516 1.232-3.72.615-1.553 1.097-2.464 1.472-2.758-.616-.455-1.472-.696-2.516-.696-.75 0-1.312.214-1.687.589-.401-.402-1.124-.59-2.222-.59-1.954 0-3.747.804-5.38 2.41-1.242 1.222-2.035 2.552-2.367 3.99zm-5.798-4.392c.107-.348-.08-.536-.535-.536-.375 0-.83.402-1.366 1.232-.615.937-1.177 2.114-1.686 3.587-.268.776-.402 1.392-.428 1.847-.027.482.133.723.428.723.428 0 1.017-.696 1.74-2.088.723-1.366 1.338-2.945 1.847-4.765zm14.027-.402c.268 0 .402.107.402.321-.027.643-.509 1.928-1.419 3.828-1.017 2.062-1.767 3.106-2.302 3.106-.214 0-.295-.188-.295-.536.027-.856.429-2.168 1.232-3.881.883-1.901 1.686-2.838 2.382-2.838zm14.616.402c.108-.348-.08-.536-.535-.536-.375 0-.83.402-1.365 1.232-.616.937-1.178 2.114-1.687 3.587-.267.776-.401 1.392-.428 1.847-.027.482.134.723.428.723.429 0 1.018-.696 1.74-2.088.723-1.366 1.339-2.945 1.847-4.765z" fill="#fff"/><path d="M77.664 11.297c.563-.348.857-.777.884-1.312 0-.401-.16-.696-.509-.937a2.072 2.072 0 00-1.07-.294 3.15 3.15 0 00-1.607.428c-.562.348-.856.776-.883 1.312 0 .401.16.696.508.937.295.187.643.294 1.071.294.59 0 1.125-.134 1.606-.428zm5.114 0c.562-.348.856-.777.883-1.312.027-.401-.16-.696-.509-.937a2.073 2.073 0 00-1.07-.294 3.15 3.15 0 00-1.607.428c-.562.348-.856.776-.883 1.312 0 .401.16.696.508.937.295.187.643.294 1.071.294.59 0 1.125-.134 1.606-.428zm23.53-1.312c-.027.536-.321.964-.883 1.312-.482.294-1.018.428-1.607.428-.428 0-.776-.107-1.07-.294-.348-.241-.509-.536-.509-.937.027-.536.321-.964.883-1.312a3.145 3.145 0 011.607-.428c.401 0 .749.107 1.07.294.375.241.536.536.509.937zm4.256 1.312c.562-.348.857-.777.884-1.312 0-.401-.161-.696-.509-.937a2.071 2.071 0 00-1.071-.294c-.562 0-1.097.134-1.606.428-.562.348-.856.776-.883 1.312 0 .401.16.696.508.937a1.94 1.94 0 001.071.294c.589 0 1.124-.134 1.606-.428zm46.258-1.312c-.027.536-.321.964-.883 1.312-.482.294-1.017.428-1.606.428-.429 0-.777-.107-1.071-.294-.348-.241-.509-.536-.509-.937.027-.536.321-.964.884-1.312a3.141 3.141 0 011.606-.428c.401 0 .749.107 1.071.294.348.241.535.536.508.937zm4.257 1.312c.562-.348.856-.777.883-1.312 0-.401-.161-.696-.509-.937a2.07 2.07 0 00-1.07-.294 3.15 3.15 0 00-1.607.428c-.562.348-.856.776-.883 1.312 0 .401.161.696.509.937.294.187.642.294 1.07.294.589 0 1.125-.134 1.607-.428zM16.951 3.32c.562-.349.857-.777.883-1.312 0-.402-.16-.696-.508-.937a2.072 2.072 0 00-1.071-.295 3.14 3.14 0 00-1.606.429c-.562.348-.857.776-.883 1.311 0 .402.16.696.508.937.295.188.643.295 1.07.295.59 0 1.125-.134 1.607-.429z" fill="#fff"/></svg>