<svg width="30" height="30" fill="none" xmlns="http://www.w3.org/2000/svg"><path fill-rule="evenodd" clip-rule="evenodd" d="M0 0h30v30H0V0zm10.86 11.53V23H7.214V11.53h3.644zm.24-3.548c0 1.1-.792 1.981-2.062 1.981h-.024C7.79 9.963 7 9.083 7 7.982 7 6.856 7.815 6 9.062 6c1.246 0 2.014.856 2.037 1.982zM16.52 23h-3.644s.048-10.394 0-11.47h3.644v1.624c.485-.782 1.352-1.893 3.285-1.893 2.397 0 4.195 1.64 4.195 5.162V23h-3.644v-6.136c0-1.542-.527-2.594-1.846-2.594-1.007 0-1.606.71-1.87 1.394-.096.245-.12.588-.12.93V23z" fill="#fff"/></svg>