<svg width="35" height="35" fill="none" xmlns="http://www.w3.org/2000/svg"><path fill-rule="evenodd" clip-rule="evenodd" d="M0 0h8.52a9.053 9.053 0 00-3.263.605A9.197 9.197 0 002.54 2.422 8.8 8.8 0 00.703 5.117C.254 6.152.04 7.247.04 8.437c0 1.172.215 2.266.664 3.301a8.744 8.744 0 001.837 2.735 8.662 8.662 0 002.717 1.836 8.253 8.253 0 003.302.664h2.658v-3.36H8.56c-.703 0-1.387-.117-2.012-.39a4.937 4.937 0 01-1.642-1.094 5.248 5.248 0 01-1.094-1.64 5.422 5.422 0 01-.391-2.012c0-.704.117-1.368.39-1.993a5.055 5.055 0 011.095-1.62A5.25 5.25 0 016.547 3.77a5.43 5.43 0 012.012-.391c.704 0 1.368.117 1.994.39a5.058 5.058 0 011.622 1.094c.469.469.82.996 1.094 1.621.254.625.39 1.29.39 1.993v8.535h3.362V8.496c0-1.191-.215-2.305-.664-3.32a8.862 8.862 0 00-1.053-1.817h13.052c-.168.231-.364.484-.583.766-.188.243-.392.508-.61.797a77.758 77.758 0 00-1.524 2.012c-.234.301-.47.614-.708.932-.319.424-.646.86-.992 1.294-.606.762-1.172 1.524-1.74 2.285a601.503 601.503 0 01-4.181 5.528H35v-3.36H24.72c.169-.23.365-.483.583-.765.188-.244.393-.508.61-.797.13-.175.265-.353.402-.534v-.001c.353-.467.723-.957 1.103-1.477.288-.371.577-.758.872-1.153.263-.354.531-.714.808-1.074.586-.761 1.153-1.523 1.72-2.284A277.026 277.026 0 0135 0v25.622a7.817 7.817 0 00-.625-2.458 8.624 8.624 0 00-1.818-2.695 9.105 9.105 0 00-2.697-1.817c-1.035-.449-2.13-.664-3.322-.664a8.19 8.19 0 00-3.263.664 9.197 9.197 0 00-2.717 1.817 8.799 8.799 0 00-1.837 2.695c-.449 1.035-.664 2.129-.664 3.32a8.17 8.17 0 00.664 3.301 9.247 9.247 0 001.058 1.817H6.722c.168-.231.364-.485.583-.766.188-.243.392-.508.61-.797.13-.175.265-.353.402-.535.353-.466.722-.956 1.102-1.477.29-.37.578-.758.872-1.153.264-.354.532-.713.809-1.073.586-.762 1.153-1.524 1.72-2.285a277.34 277.34 0 014.182-5.528H.02v3.36h10.318c-.168.23-.364.484-.582.765-.189.244-.393.508-.61.797l-.403.535c-.353.467-.722.957-1.102 1.477-.235.301-.47.614-.709.932-.318.424-.645.86-.991 1.294-.606.762-1.173 1.524-1.74 2.285l-.905 1.213v.001C2.245 32.057 1.156 33.517.02 35H0V0zm29.235 35h2.443v-8.496c0-.703-.137-1.367-.391-1.992a5.16 5.16 0 00-1.094-1.621 5.059 5.059 0 00-1.622-1.094c-.626-.274-1.29-.39-1.994-.39a5.43 5.43 0 00-2.013.39 5.25 5.25 0 00-1.641 1.094 5.056 5.056 0 00-1.094 1.62c-.274.626-.391 1.29-.391 1.993 0 .703.137 1.367.39 2.012a5.249 5.249 0 001.095 1.64c.469.469 1.016.84 1.642 1.094.42.184.867.297 1.329.352h3.282v.039h.06V35z" fill="#F6D119"/></svg>