<svg width="75" height="92" fill="none" xmlns="http://www.w3.org/2000/svg"><path d="M63.14 41.64l-1.933 2.294.008.007.008.006 1.917-2.307zm4.68 33l2.555 1.572.007-.01.006-.011-2.568-1.551zM56.06 84.72l1.291 2.708.01-.004.008-.005-1.309-2.699zm-36.84 1.44l-.813 2.888.023.006.024.007.766-2.901zM4.7 79.44l-2.666-1.376-1.186 2.299 2.1 1.512L4.7 79.44zm7.68-14.88l1.8-2.4-2.838-2.129-1.628 3.153 2.666 1.376zm11.04 5.64l-.932 2.852.025.008.025.007.882-2.867zm24.36-.96l1.697 2.474-1.697-2.474zm-.24-16.2l-1.615 2.528.016.01.015.01 1.584-2.548zm-36.6-2.76l-2.988-.273-.299 3.273h3.287v-3zM15.26 3V0h-2.738l-.25 2.727L15.26 3zM66.5 3h3V0h-3v3zm0 15.6v3h3v-3h-3zm-35.04 0v-3h-2.762l-.228 2.753 2.99.247zm-1.32 15.96l-2.99-.247-.268 3.247h3.258v-3zm6.84 3c11.54 0 19.414 2.318 24.227 6.374l3.866-4.588C58.686 33.962 49.12 31.56 36.98 31.56v6zm24.243 6.387c4.939 4.105 7.437 9.551 7.437 16.653h6c0-8.738-3.182-15.932-9.603-21.267l-3.834 4.614zM68.66 60.6c0 4.593-1.14 8.734-3.408 12.49l5.136 3.1c2.852-4.724 4.272-9.943 4.272-15.59h-6zm-3.395 12.468c-2.205 3.583-5.644 6.591-10.514 8.953l2.618 5.398c5.69-2.758 10.09-6.47 13.006-11.207l-5.11-3.144zm-10.496 8.944c-4.686 2.235-10.654 3.428-18.029 3.428v6c7.985 0 14.897-1.287 20.611-4.012l-2.582-5.416zM36.74 85.44a65.41 65.41 0 01-16.755-2.18l-1.53 5.8a71.385 71.385 0 0018.285 2.38v-6zm-16.707-2.168c-5.407-1.523-9.914-3.627-13.58-6.267l-3.506 4.87c4.334 3.12 9.507 5.496 15.46 7.173l1.626-5.776zM7.366 80.816l7.68-14.88-5.332-2.752-7.68 14.88 5.332 2.752zM10.58 66.96c3.486 2.615 7.465 4.64 11.908 6.092l1.864-5.704c-3.877-1.267-7.258-3.003-10.172-5.188l-3.6 4.8zm11.958 6.107A46.413 46.413 0 0036.26 75.12v-6a40.42 40.42 0 01-11.958-1.787l-1.764 5.734zM36.26 75.12c5.232 0 9.742-1.024 13.217-3.406l-3.394-4.948c-2.125 1.458-5.295 2.354-9.823 2.354v6zm13.217-3.406c3.628-2.488 5.503-6.1 5.503-10.514h-6c0 2.466-.925 4.214-2.897 5.566l3.394 4.948zM54.98 61.2c0-4.596-1.98-8.299-5.856-10.708l-3.168 5.096c2.045 1.27 3.024 3.007 3.024 5.612h6zm-5.825-10.688c-3.661-2.34-9.47-3.232-16.735-3.232v6c7.136 0 11.406.947 13.505 2.288l3.23-5.056zM32.42 47.28H10.94v6h21.48v-6zm-18.492 3.273l4.32-47.28-5.976-.546-4.32 47.28 5.976.546zM15.26 6H66.5V0H15.26v6zM63.5 3v15.6h6V3h-6zm3 12.6H31.46v6H66.5v-6zm-38.03 2.753l-1.32 15.96 5.98.494 1.32-15.96-5.98-.494zm1.67 19.207h6.84v-6h-6.84v6z" fill="#4B2613"/></svg>