<svg width="89" height="113" fill="none" xmlns="http://www.w3.org/2000/svg"><path d="M75.05 51.3l-1.933 2.294.008.007.008.006L75.05 51.3zm5.85 41.25l2.555 1.572.007-.01.006-.011L80.9 92.55zm-14.7 12.6l1.291 2.708.01-.004.008-.005-1.309-2.699zm-46.05 1.8l-.813 2.888.023.006.024.007.766-2.901zM2 98.55l-2.666-1.376-1.186 2.299 2.1 1.512L2 98.55zm9.6-18.6l1.8-2.4-2.838-2.129-1.628 3.153L11.6 79.95zM25.4 87l-.932 2.852.025.008.025.007L25.4 87zm30.45-1.2l1.697 2.474L55.85 85.8zm-.3-20.25l-1.615 2.528.015.01.016.01 1.584-2.548zM9.8 62.1l-2.988-.273-.299 3.273H9.8v-3zM15.2 3V0h-2.738l-.25 2.727L15.2 3zm64.05 0h3V0h-3v3zm0 19.5v3h3v-3h-3zm-43.8 0v-3h-2.762l-.228 2.753 2.99.247zM33.8 42.45l-2.99-.247-.268 3.247H33.8v-3zm8.55 3c14.5 0 24.554 2.908 30.767 8.144l3.866-4.588C69.196 42.442 57.45 39.45 42.35 39.45v6zm30.783 8.157C79.492 58.892 82.7 65.918 82.7 75h6c0-10.718-3.892-19.492-11.733-26.007l-3.834 4.614zM82.7 75c0 5.873-1.46 11.184-4.368 16l5.136 3.1C86.96 88.317 88.7 81.928 88.7 75h-6zm-4.355 15.978C75.5 95.6 71.082 99.449 64.891 102.45l2.618 5.398c7.01-3.398 12.39-7.95 15.946-13.727l-5.11-3.144zm-13.436 11.464c-5.986 2.855-13.564 4.358-22.859 4.358v6c9.905 0 18.427-1.597 25.441-4.942l-2.582-5.416zM42.05 106.8a82.45 82.45 0 01-21.134-2.751l-1.532 5.802A88.503 88.503 0 0042.05 112.8v-6zm-21.087-2.738c-6.827-1.923-12.544-4.587-17.21-7.947l-3.506 4.87c5.334 3.84 11.717 6.776 19.09 8.853l1.626-5.776zM4.666 99.926l9.6-18.6-5.332-2.752-9.6 18.6 5.332 2.752zM9.8 82.35c4.286 3.215 9.185 5.71 14.668 7.502l1.864-5.704c-4.917-1.607-9.218-3.813-12.932-6.598l-3.6 4.8zm14.718 7.517A57.267 57.267 0 0041.45 92.4v-6a51.271 51.271 0 01-15.168-2.267l-1.764 5.734zM41.45 92.4c6.452 0 11.922-1.264 16.097-4.126l-3.394-4.948C51.328 85.264 47.198 86.4 41.45 86.4v6zm16.097-4.126c4.328-2.968 6.553-7.25 6.553-12.524h-6c0 3.326-1.275 5.744-3.947 7.576l3.394 4.948zM64.1 75.75c0-5.496-2.35-9.879-6.966-12.748l-3.168 5.096c2.785 1.73 4.134 4.147 4.134 7.652h6zm-6.935-12.728c-4.381-2.8-11.45-3.922-20.515-3.922v6c8.936 0 14.466 1.177 17.285 2.978l3.23-5.056zM36.65 59.1H9.8v6h26.85v-6zm-23.862 3.273l5.4-59.1-5.976-.546-5.4 59.1 5.976.546zM15.2 6h64.05V0H15.2v6zm61.05-3v19.5h6V3h-6zm3 16.5h-43.8v6h43.8v-6zm-46.79 2.753l-1.65 19.95 5.98.494 1.65-19.95-5.98-.494zM33.8 45.45h8.55v-6H33.8v6z" fill="#4B2613"/></svg>