<svg width="60" height="60" fill="none" xmlns="http://www.w3.org/2000/svg"><path d="M55 0H5a5 5 0 00-5 5v50a5 5 0 005 5h50a5 5 0 005-5V5a5 5 0 00-5-5z" fill="#F6D119"/><path fill-rule="evenodd" clip-rule="evenodd" d="M8 43.263l22.377-.169 22.37.169-22.37.237L8 43.263z" fill="#4B2613"/><path d="M39.377 9h-18v18h18V9z" fill="#4B2613"/><path d="M25.872 9c.631 0 1.211.114 1.76.351a4.826 4.826 0 011.43.961c.403.403.724.879.963 1.426a4.3 4.3 0 01.352 1.757V18h-1.782v-4.515a2.77 2.77 0 00-.207-1.054 2.73 2.73 0 00-1.44-1.437 2.603 2.603 0 00-1.056-.206 2.88 2.88 0 00-1.066.206 2.674 2.674 0 00-1.45 1.436 2.594 2.594 0 00-.208 1.055c0 .372.073.723.208 1.064.145.33.331.62.58.868.248.248.538.444.87.578.33.145.693.207 1.066.207h1.409v1.777h-1.409a4.377 4.377 0 01-1.75-.351 4.59 4.59 0 01-1.44-.971 4.626 4.626 0 01-.973-1.447 4.315 4.315 0 01-.352-1.746c0-.63.114-1.21.352-1.757.238-.537.56-1.012.973-1.426a4.873 4.873 0 011.44-.96A4.723 4.723 0 0125.872 9z" fill="#F6D119"/><path d="M39.377 9c-.785.902-1.52 1.768-2.211 2.605-.3.36-.6.718-.91 1.077-.31.36-.599.718-.888 1.05-.28.34-.548.654-.796.948-.248.295-.465.534-.63.737h5.435V17h-8.979a290.6 290.6 0 002.211-2.605c.3-.36.6-.718.92-1.077.32-.36.61-.718.899-1.05.279-.34.547-.654.795-.948.248-.295.465-.534.63-.737H25.377V9h14zm-9.26 9a146.298 146.298 0 00-2.15 2.931c-.29.404-.582.808-.884 1.212-.301.404-.582.808-.864 1.18-.271.384-.532.736-.773 1.067-.241.331-.452.6-.613.829h11.544V27h-14.99a318.956 318.956 0 002.15-2.931c.291-.404.582-.808.894-1.212.311-.404.593-.808.874-1.18.271-.384.532-.736.774-1.067.24-.331.452-.6.613-.829h-5.315V18h8.74z" fill="#F6D119"/><path d="M34.871 18c.632 0 1.212.114 1.761.351a4.827 4.827 0 011.43.961c.403.403.724.879.963 1.426.238.538.352 1.127.352 1.757V27h-1.782v-4.495a2.77 2.77 0 00-.207-1.054 2.73 2.73 0 00-1.44-1.436 2.605 2.605 0 00-1.056-.207 2.89 2.89 0 00-1.067.207 2.674 2.674 0 00-1.45 1.436c-.144.33-.207.682-.207 1.054s.073.724.208 1.065c.145.33.331.62.58.867.248.248.538.445.87.58.33.144.693.206 1.066.206h1.409V27h-1.409a4.378 4.378 0 01-1.75-.351 4.592 4.592 0 01-1.44-.972 4.7 4.7 0 01-.973-1.436 4.315 4.315 0 01-.352-1.746c0-.63.114-1.21.352-1.757.238-.537.56-1.012.973-1.426a4.874 4.874 0 011.44-.96 4.421 4.421 0 011.73-.352z" fill="#F6D119"/><path d="M15.04 46.076c.053 0 .092-.017.107-.042a.19.19 0 00.03-.085c0-.05 0-.118-.007-.212-.008-.135-.015-.229-.015-.28a.822.822 0 00-.023-.22c-.016-.05-.054-.076-.115-.076-.039 0-.07 0-.092.008-.023.009-.031.017-.031.026-.046 0-.13-.017-.253-.05a.837.837 0 00-.107-.026 9.917 9.917 0 00-.468-.085 2.515 2.515 0 00-.413-.034c-.338 0-.644.068-.92.203a2.23 2.23 0 00-.728.56c-.2.237-.36.508-.467.813a2.86 2.86 0 00-.161.958c0 .33.053.636.168.94.115.297.268.568.475.797.2.229.437.407.705.534.269.127.552.195.85.195.27 0 .514-.025.737-.076.222-.051.436-.136.636-.246a.42.42 0 00.23-.237c.007-.026.03-.077.053-.136.046-.102.077-.186.107-.254.023-.068.039-.11.039-.127 0-.009-.016-.026-.039-.043a.151.151 0 00-.092-.025.143.143 0 00-.1.05c-.03.035-.068.077-.107.136-.03.043-.045.068-.068.085-.146.17-.353.297-.621.381a1.71 1.71 0 01-.345.085 2.229 2.229 0 01-.33.026c-.206 0-.413-.06-.605-.178a1.717 1.717 0 01-.513-.492 2.657 2.657 0 01-.353-.72 2.827 2.827 0 01-.13-.848c0-.296.038-.567.115-.813.077-.246.184-.466.33-.644.145-.187.321-.322.528-.424a1.54 1.54 0 01.69-.153c.146 0 .283.017.406.043.123.034.245.076.368.144a.508.508 0 01.16.136c.047.05.1.118.154.203.054.068.092.119.123.152.03.034.06.051.091.051zm2.275 1.666c-.093 0-.237 0-.425-.008v-.018l.447-1.384.418 1.384v.018c-.202.008-.346.008-.44.008zm.49-1.99l-.23-.709h-.202c-.202 0-.425-.017-.663-.043l.022.07c.108.094.194.198.26.32.064.12.1.233.1.354 0 .043 0 .07-.007.087l-1.132 3.442a1.37 1.37 0 01-.209.407.922.922 0 01-.302.225l-.065.095c.13-.026.23-.043.31-.052.079-.009.158-.008.23-.008.065 0 .13 0 .202.008.072.009.166.026.274.043v-.069a.362.362 0 01-.087-.242c0-.043 0-.087.008-.112.007-.035.021-.078.043-.148v-.008l.418-1.358a5.27 5.27 0 01.562-.026c.159 0 .332.008.533.026l.368 1.245a.389.389 0 01.022.096.795.795 0 01.014.13c0 .06-.029.138-.094.241-.043.07-.065.113-.065.148V50c.137-.026.26-.043.36-.06.102-.01.195-.018.296-.018.08 0 .173.009.267.018.094.008.209.034.339.06v-.095a.686.686 0 01-.252-.225 1.445 1.445 0 01-.174-.372l-1.146-3.555zm2.4 4.162c.115 0 .229 0 .353.009.123.008.285.017.476.034v-.086c-.238-.103-.362-.292-.381-.558a30.982 30.982 0 01-.048-1.53.197.197 0 00.038-.042c.038-.043.077-.086.115-.12.114.12.238.248.362.395.123.145.285.334.476.567.076.094.152.189.21.257.037.043.104.12.19.232.133.155.238.284.333.378.086.095.19.19.314.275.115.086.258.155.41.198a1.6 1.6 0 00.514.077c.2 0 .381-.026.553-.086.171-.06.257-.103.257-.129 0-.017-.01-.034-.029-.051-.019-.017-.066-.017-.143-.017-.057 0-.104 0-.143.008-.038.009-.066.017-.085.017-.029.009-.048.009-.057.009-.181 0-.372-.095-.59-.292-.21-.198-.487-.507-.83-.92a10.084 10.084 0 01-.37-.429c-.4-.455-.687-.79-.858-1.014.029-.026.067-.068.114-.12.276-.275.495-.507.676-.679.181-.18.353-.352.524-.515.162-.155.334-.292.505-.421.171-.129.352-.215.524-.275L23.69 45l-.438.026c-.19.008-.333.017-.41.017-.142 0-.38-.017-.704-.043l-.077.086a.282.282 0 01.038.163c0 .086-.019.18-.066.275-.048.095-.095.18-.162.258-.181.223-.381.455-.6.687-.22.232-.448.455-.686.679v-.773c0-.207.01-.404.02-.593.009-.155.047-.292.095-.413a.479.479 0 01.247-.266v-.069c-.095 0-.219.009-.38.026-.191.009-.325.017-.4.017-.106 0-.22 0-.334-.008-.114-.009-.267-.018-.457-.035v.07a.63.63 0 01.276.291c.048.103.076.232.086.378.019.292.028.602.038.91.01.31.01.62.01.92 0 .782 0 1.375-.01 1.77a.5.5 0 01-.105.318.723.723 0 01-.257.206v.086c.171-.017.314-.026.428-.034.153-.035.258-.035.362-.035zm4.871.051h.43c.152 0 .327.009.53.009h.714c.139 0 .233-.026.277-.07a.402.402 0 00.095-.182l.007-.008c.022-.096.066-.226.146-.391.065-.148.102-.243.102-.295 0-.009-.015-.026-.037-.052a.131.131 0 00-.094-.035c-.037 0-.08.026-.117.07-.036.043-.087.112-.153.2a1.41 1.41 0 01-.204.26.55.55 0 01-.262.164 1.26 1.26 0 01-.342.035c-.095 0-.182-.009-.262-.017a.691.691 0 01-.226-.07.453.453 0 01-.248-.408c-.014-.33-.021-.607-.029-.833-.007-.226-.007-.477-.007-.755.313 0 .539.008.685.026a.72.72 0 01.29.087c.08.043.146.121.19.243h.204c-.007-.13-.007-.209-.007-.252v-.226c0-.095.007-.217.022-.347.007-.07.014-.13.014-.182h-.204a.72.72 0 01-.21.269.545.545 0 01-.256.07c-.05 0-.123.008-.218.008-.11 0-.277 0-.503-.009v-.425c0-.486.008-.842.022-1.068 0-.043.008-.087.008-.139 0-.13.007-.217.021-.26l.153-.017c.16-.018.277-.026.35-.026.226 0 .386.026.495.078a.48.48 0 01.233.217s.007.017.022.034a.322.322 0 00.058.105c.022.026.058.034.102.034a.137.137 0 00.087-.026c.022-.017.03-.035.03-.052 0-.052-.008-.121-.015-.217a2.872 2.872 0 01-.022-.338c0-.035-.022-.061-.058-.087-.037-.026-.087-.035-.146-.052a1.194 1.194 0 00-.167-.018h-.19c-.101 0-.269.009-.502.026-.03 0-.08.01-.138.01-.124.008-.233.016-.32.016-.088 0-.16.01-.212.01-.065 0-.16-.01-.291-.018a7.309 7.309 0 01-.466-.052l-.08-.009.014.104a.713.713 0 01.27.278.858.858 0 01.094.364c.015.296.022.6.03.912.007.313.007.625.007.929v.842c0 .2 0 .442-.008.746 0 .122-.043.26-.123.408a.708.708 0 01-.117.174.637.637 0 01-.116.113V50c.036 0 .058-.009.08-.009.145-.017.262-.034.357-.043.072.026.145.017.21.017zm8.657-.017c.082 0 .178 0 .274.008.096.01.222.018.37.035v-.087c-.185-.104-.281-.295-.289-.565a37.26 37.26 0 01-.037-1.774v-1.339c0-.165.008-.322.015-.47.008-.156.037-.295.074-.417a.457.457 0 01.192-.27V45c-.066 0-.162.009-.295.026-.148.009-.252.017-.31.017-.082 0-.164 0-.252-.008-.089-.009-.207-.018-.363-.035v.07a.62.62 0 01.222.295c.037.105.052.235.06.392.022.521.036 1.008.036 1.47-.347.008-.687.017-1.035.017-.407 0-.761-.01-1.08-.027v-.408c0-.47.008-.809.023-1.026.007-.157.037-.305.074-.427a.456.456 0 01.192-.269V45c-.089 0-.185.009-.288.026-.156.009-.267.017-.326.017-.08 0-.17 0-.258-.008-.09-.009-.207-.018-.355-.035v.07a.63.63 0 01.214.286c.037.105.06.235.067.392.014.296.022.6.03.913.007.313.007.626.007.93 0 .792 0 1.392-.008 1.792a.612.612 0 01-.28.53V50c.132-.017.243-.026.332-.035.089-.009.177-.009.259-.009.088 0 .177 0 .273.01.096.008.222.017.37.034v-.087c-.185-.104-.28-.296-.288-.565a37.26 37.26 0 01-.037-1.774v-.017c.355-.01.71-.018 1.08-.018.34 0 .68.009 1.034.017v.027c0 .79 0 1.39-.007 1.79a.7.7 0 01-.074.323.557.557 0 01-.2.208v.087c.133-.017.244-.026.34-.035.074-.008.163-.008.245-.008zm3.144-4.596c.244 0 .47.051.68.154.208.103.391.257.548.463.157.206.279.455.366.746.087.292.13.626.13.995 0 .292-.043.566-.13.806-.087.24-.21.446-.366.618-.157.171-.34.3-.549.386a1.786 1.786 0 01-.68.128c-.234 0-.452-.06-.661-.18a1.764 1.764 0 01-.54-.506 2.534 2.534 0 01-.357-.737 2.86 2.86 0 01-.131-.867c0-.3.043-.574.122-.814.078-.249.2-.455.348-.635a1.61 1.61 0 01.532-.403c.217-.111.444-.154.688-.154zm0-.352c-.34 0-.662.069-.967.197a2.333 2.333 0 00-.802.55c-.226.23-.409.505-.54.805-.13.3-.191.618-.191.952 0 .335.06.644.191.952a2.532 2.532 0 001.342 1.347c.305.128.627.197.967.197.34 0 .662-.06.967-.189.304-.12.575-.3.801-.523a2.49 2.49 0 00.732-1.792c0-.343-.053-.66-.166-.96a2.23 2.23 0 00-.488-.79 2.351 2.351 0 00-.792-.54A2.593 2.593 0 0036.877 45zm4.491 5c.272 0 .502-.017.692-.06.19-.043.362-.121.51-.25.148-.13.272-.32.354-.587.082-.258.123-.612.123-1.043 0-.034 0-.12.009-.258v-1.259c0-.276.008-.543.016-.793.008-.207.033-.362.074-.457a.478.478 0 01.23-.233V45c-.082 0-.189.009-.328.026-.165.008-.28.017-.346.017-.033 0-.107 0-.198-.008a16.122 16.122 0 01-.313-.026v.069c.14.086.231.172.272.258.041.086.066.224.074.414.008.155.008.405.008.733v.56c0 .302-.008.483-.008.535v.284c0 .155 0 .293-.008.405a3.301 3.301 0 01-.082.733c-.05.19-.116.328-.206.422a.674.674 0 01-.33.19 1.987 1.987 0 01-.493.052 1.67 1.67 0 01-.387-.043.595.595 0 01-.288-.173c-.09-.086-.156-.215-.214-.379-.058-.172-.082-.388-.09-.664-.009-.207-.009-.37-.017-.491v-1.689c0-.165.008-.32.016-.466.009-.156.042-.294.083-.423a.46.46 0 01.214-.267V45c-.074 0-.181.009-.321.026-.165.008-.28.017-.354.017-.09 0-.181 0-.28-.008-.099-.01-.23-.018-.403-.035v.069a.607.607 0 01.238.293c.041.112.066.233.075.38.008.232.008.405.008.534 0 .172 0 .396-.008.672-.009.31-.009.517-.009.638 0 .086 0 .25.009.509l.008.414c0 .319.057.586.164.784.107.207.239.354.404.457.164.103.337.164.518.198.19.035.387.052.584.052zm3.318 0c.279 0 .52-.043.743-.12a1.454 1.454 0 00.846-.785 1.43 1.43 0 00.102-.517c0-.164-.037-.31-.102-.457a1.517 1.517 0 00-.26-.388 2.9 2.9 0 00-.344-.32 10.35 10.35 0 00-.455-.327c-.325-.224-.567-.414-.725-.577a.766.766 0 01-.232-.552c0-.172.065-.32.204-.448a.62.62 0 01.437-.19 1.24 1.24 0 01.761.276.98.98 0 01.121.18c.056.096.112.173.149.225a.213.213 0 00.158.078c.056 0 .102-.018.12-.052.028-.035.038-.06.038-.086 0-.087-.01-.216-.028-.388a4.855 4.855 0 01-.028-.431c0-.018-.01-.035-.037-.052-.019-.017-.065-.026-.121-.026a.716.716 0 00-.158.017c-.037.009-.074.026-.111.035-.01.008-.019.008-.028.008-.065 0-.177-.017-.334-.051a2.78 2.78 0 00-.446-.052c-.242 0-.446.035-.623.112a1.436 1.436 0 00-.445.293c-.121.12-.205.259-.26.405a1.242 1.242 0 00-.084.449.94.94 0 00.093.422c.056.13.14.25.241.354.102.103.205.206.325.284.112.086.26.19.446.302.167.112.307.207.409.284.102.078.204.164.297.259s.167.198.214.301a.877.877 0 01.01.724.758.758 0 01-.205.268.94.94 0 01-.27.155.847.847 0 01-.288.052c-.12 0-.269-.043-.436-.12a1.45 1.45 0 01-.418-.294 1.016 1.016 0 01-.158-.285 1.245 1.245 0 00-.102-.19c-.028-.034-.056-.06-.093-.06-.084 0-.14.026-.177.078a.265.265 0 00-.055.155c0 .06 0 .13.009.207.01.07.019.138.028.19 0 .034.01.052.01.06 0 .104.018.19.055.25.037.06.111.112.214.138.027.009.074.017.148.043.177.052.325.086.446.112.111.035.25.052.4.052zm2.39-.035h.43c.152 0 .327.009.53.009h.715c.138 0 .233-.026.276-.07a.402.402 0 00.095-.182l.007-.008c.022-.096.066-.226.146-.391.065-.148.102-.243.102-.295 0-.009-.015-.026-.037-.052a.131.131 0 00-.094-.035c-.037 0-.08.026-.117.07-.036.043-.087.112-.153.2a1.41 1.41 0 01-.204.26.55.55 0 01-.262.164 1.26 1.26 0 01-.342.035c-.095 0-.182-.009-.262-.017a.691.691 0 01-.226-.07.453.453 0 01-.248-.408c-.014-.33-.021-.607-.029-.833-.007-.226-.007-.477-.007-.755.313 0 .539.008.685.026a.72.72 0 01.29.087c.08.043.146.121.19.243h.204c-.007-.13-.007-.209-.007-.252v-.226c0-.095.007-.217.022-.347.007-.07.014-.13.014-.182h-.204a.72.72 0 01-.21.269.545.545 0 01-.256.07c-.05 0-.116.008-.218.008-.11 0-.277 0-.503-.009v-.425c0-.486.008-.842.022-1.068 0-.043.008-.087.008-.139 0-.13.007-.217.021-.26l.153-.017c.16-.018.277-.026.35-.026.225 0 .386.026.495.078a.48.48 0 01.233.217s.007.017.022.034a.322.322 0 00.058.105c.022.026.058.034.102.034a.137.137 0 00.087-.026c.022-.017.03-.035.03-.052 0-.052-.008-.121-.015-.217a2.872 2.872 0 01-.022-.338c0-.035-.022-.061-.058-.087-.037-.026-.088-.035-.146-.052a1.194 1.194 0 00-.167-.018h-.19a7.94 7.94 0 00-.502.026c-.03 0-.08.01-.138.01-.124.008-.233.016-.32.016-.088 0-.16.01-.212.01-.065 0-.16-.01-.291-.018a7.309 7.309 0 01-.466-.052l-.08-.009.014.104a.713.713 0 01.27.278.858.858 0 01.094.364 35.773 35.773 0 01.037 1.84v.843c0 .2 0 .442-.008.746 0 .122-.043.26-.123.408a.708.708 0 01-.117.174.468.468 0 01-.116.113V50c.036 0 .058-.009.08-.009.145-.017.262-.034.357-.043.072.026.145.017.21.017zM30.602 29.896a176.483 176.483 0 00-2.723 3.64c-.362.5-.736.999-1.11 1.505-.382.505-.744.999-1.087 1.467-.344.474-.675.911-.987 1.317-.312.406-.568.75-.774 1.037h6.668v2.216H19.54a767.247 767.247 0 002.721-3.64c.362-.5.737-.999 1.124-1.505.387-.505.756-.998 1.099-1.467.343-.474.674-.911.986-1.317.313-.406.569-.75.775-1.037h-6.706v-2.216h11.064zm-17.052 0c.775 0 1.493.144 2.16.437a5.487 5.487 0 011.749 1.199c.5.506.893 1.099 1.186 1.767.288.674.431 1.398.431 2.179v5.606h-2.198v-5.606c0-.462-.087-.9-.256-1.305a3.58 3.58 0 00-.711-1.074 3.373 3.373 0 00-1.062-.724 3.209 3.209 0 00-1.292-.263 3.36 3.36 0 00-2.379.986 3.228 3.228 0 00-.712 1.075 3.266 3.266 0 00-.256 1.305c0 .462.088.905.256 1.323.175.412.412.774.712 1.087a3.36 3.36 0 002.379.986h1.73v2.217H13.55a5.328 5.328 0 01-2.148-.438 5.528 5.528 0 01-1.773-1.21 5.557 5.557 0 01-1.193-1.793 5.522 5.522 0 01-.43-2.166 5.495 5.495 0 011.623-3.946 5.773 5.773 0 011.773-1.199 5.23 5.23 0 012.148-.443zm28.583 0a176.847 176.847 0 00-2.722 3.64c-.362.5-.737.999-1.111 1.505-.381.505-.743.999-1.087 1.467a55.93 55.93 0 01-.986 1.317c-.312.406-.568.75-.774 1.037h6.668v2.216H31.07a774.367 774.367 0 002.722-3.64c.362-.5.737-.999 1.124-1.505a89.58 89.58 0 001.099-1.467c.343-.474.674-.911.986-1.317.312-.406.568-.75.774-1.037H31.07v-2.216h11.063z" fill="#4B2613"/><path d="M47.222 29.896a5.31 5.31 0 012.16.437 5.487 5.487 0 011.748 1.199c.5.506.893 1.099 1.186 1.767.287.674.431 1.398.431 2.179v5.606h-2.191v-5.606c0-.462-.088-.9-.256-1.305a3.582 3.582 0 00-.712-1.074 3.375 3.375 0 00-1.062-.724 3.21 3.21 0 00-1.292-.263 3.359 3.359 0 00-2.379.986 3.228 3.228 0 00-.712 1.075 3.266 3.266 0 00-.255 1.305c0 .462.087.905.256 1.323.174.412.412.774.711 1.087a3.359 3.359 0 002.38.986h1.729v2.217h-1.73a5.328 5.328 0 01-2.148-.438 5.529 5.529 0 01-1.773-1.21 5.678 5.678 0 01-1.199-1.793 5.522 5.522 0 01-.43-2.166c0-.78.143-1.505.43-2.18a5.47 5.47 0 011.2-1.766 5.774 5.774 0 011.772-1.199c.662-.3 1.38-.443 2.136-.443z" fill="#4B2613"/></svg>