<svg class='tagline' width="390" height="49" fill="none" xmlns="http://www.w3.org/2000/svg"><path d="M19.804 2.803c-.042.835-.501 1.503-1.378 2.046-.752.46-1.587.668-2.506.668-.668 0-1.211-.167-1.67-.459-.543-.376-.794-.835-.794-1.462.042-.835.501-1.503 1.378-2.046A4.903 4.903 0 0117.34.882c.626 0 1.17.167 1.67.46.543.375.835.835.794 1.461zM28.573 27.4c1.754-3.34 2.673-6.64 2.757-9.855.167-6.223-2.422-9.313-7.726-9.23-2.38 0-4.468.96-6.306 2.882-1.837 1.92-2.798 4.009-2.881 6.18-.084 1.504.25 2.757.96 3.717.71 1.044 1.754 1.545 3.09 1.545.627 0 1.337-.125 2.088-.376.502-.167.585-.459.251-.918-1.128-1.712-1.67-3.633-1.629-5.763 0-1.211.25-2.214.669-3.049.417-.835.918-1.294 1.503-1.336.668-.042 1.17.543 1.587 1.837.417 1.337.626 3.216.543 5.596-.126 4.176-1.253 8.06-3.341 11.61-2.172 3.675-4.552 5.554-7.225 5.68-1.712.083-2.923-.627-3.591-2.13-.543-1.212-.752-2.966-.668-5.388.125-2.672.793-5.637 2.088-8.895 1.294-3.215 2.714-5.596 4.301-7.1.334-.333.501-.542.501-.626 0-.125-.125-.292-.376-.459-.5-.376-1.002-.501-1.461-.376-3.884 1.17-7.141 3.55-9.772 7.225-2.506 3.508-3.8 7.224-3.926 11.067-.209 6.89 3.132 10.356 10.064 10.356 4.093 0 7.851-1.211 11.234-3.633 3.007-2.172 5.429-5.011 7.266-8.561zm12.069 1.044c2.631-2.088 4.552-3.884 5.805-5.387.091-.183.138-.476.206-.897.024-.157.052-.33.086-.523-.041-.71-.209-1.044-.5-.96-.794.167-1.755.292-2.924.334-.919.041-2.213.041-3.967 0l-.857-.022h-.004c-1.284-.032-2.179-.055-2.73-.02a3.377 3.377 0 00-2.465 1.17c-.751.793-1.503 2.254-2.338 4.3-.03.075-.066.156-.102.24-.066.15-.137.31-.19.47-.084.084-.042.251.083.418.125.167.334.209.668.042.626-.293 1.336-.501 2.172-.627.71-.083 2.255-.167 4.635-.25-.209.167-1.92 1.628-5.095 4.343-2.088 1.754-3.675 3.216-4.844 4.427-.167.167-.25.459-.25.918-.042 1.295.125 1.921.542 1.921 1.044-.041 2.924-.041 5.68.042 2.756.084 4.593.084 5.596.042 1.127-.042 2.004-.46 2.756-1.211.835-.835 1.67-2.339 2.422-4.51.084-.251 0-.418-.209-.502a1.11 1.11 0 00-.71.084c-1.002.46-3.8.585-8.394.46.669-.794 2.297-2.214 4.928-4.302z" fill="#fff"/><path fill-rule="evenodd" clip-rule="evenodd" d="M46.238 28.862c.084-1.17.167-1.921.25-2.297.084-.334.335-.752.794-1.211 1.044-1.211 2.506-2.172 4.427-2.924 1.88-.751 3.8-1.127 5.721-1.127 2.547 0 4.468.585 5.805 1.712 1.17 1.086 1.712 2.464 1.67 4.176-.083 2.673-1.253 5.179-3.591 7.517-2.506 2.547-5.43 3.8-8.728 3.8-4.051 0-6.014-1.086-5.972-3.299.042-2.088 1.295-3.842 3.675-5.262 2.213-1.252 4.635-1.795 7.183-1.67.125-.418.209-.877.209-1.253.041-1.629-.627-2.506-1.963-2.63-1.337-.126-2.84.25-4.469 1.169-1.67.918-3.09 2.171-4.343 3.675-.167.208-.292.292-.417.292-.209 0-.293-.209-.25-.668zm6.932 5.01c-.16.364-.205.766-.246 1.131l-.004.04c-.042.793.209 1.169.668 1.169 1.211 0 2.339-2.005 3.383-5.972-.752.167-1.462.543-2.13 1.086-.794.751-1.336 1.545-1.67 2.547z" fill="#fff"/><path d="M75.387 22.055c1.712-4.97 3.174-8.06 4.343-9.271.25-.25.376-.418.292-.543 0-.25-.877-.376-2.672-.376-1.963 0-3.466.292-4.552.835-1.086.543-1.921 1.504-2.506 2.798-1.963 4.26-3.633 9.438-5.011 15.577-.292 1.378-.46 2.547-.501 3.466-.042 1.378.25 2.38.877 3.007.626.626 1.629.919 3.09.919 1.295 0 2.798-.543 4.51-1.67 1.587-1.045 3.007-2.381 4.302-3.968.375-.46.626-.877.71-1.337.125-.417.167-1.294.167-2.547.041-.376-.042-.585-.251-.585-.125 0-.25.126-.418.376-1.294 1.963-2.589 3.466-3.883 4.552-.543.46-.96.71-1.253.71-.334 0-.46-.292-.46-.835 0-.292.084-.668.21-1.128.71-2.965 1.712-6.305 3.006-9.98zm126.284 7.517c.125 1.252-.084 2.255-.668 3.048-1.211 1.67-2.756 3.049-4.552 4.218-1.796 1.127-3.508 1.712-5.053 1.712-2.464 0-3.675-1.127-3.592-3.424 0-.376.042-.71.126-1.086a21.69 21.69 0 01.751-2.798c.198-.591.362-1.092.497-1.503.209-.633.346-1.05.422-1.253.167-.668.292-1.17.292-1.587 0-.627-.167-.96-.584-.96-.71 0-1.587 1.21-2.631 3.674-.459 1.17-.908 2.338-1.357 3.508l-.002.005a458.613 458.613 0 01-1.356 3.503c-.501 1.253-1.503 1.88-3.048 1.88-.794 0-2.506-.168-5.137-.544a63.365 63.365 0 001.304-3.445 17.7 17.7 0 01-2.598 2.11c-1.879 1.252-3.55 1.878-5.053 1.878-1.128 0-1.963-.292-2.548-.835-.584-.543-.877-1.503-.96-2.84-2.882 2.422-5.429 3.634-7.601 3.634-2.386 0-3.598-1.098-3.595-3.33a19.316 19.316 0 01-2.251 1.7c-1.796 1.128-3.508 1.713-5.053 1.713-2.464 0-3.675-1.127-3.591-3.424 0-.376.041-.71.125-1.086.167-.877.417-1.796.752-2.798.196-.59.361-1.09.495-1.5l.001-.002c.208-.632.346-1.052.422-1.254.167-.668.293-1.17.293-1.587 0-.627-.167-.96-.585-.96-.71 0-1.587 1.21-2.631 3.674a456.727 456.727 0 00-1.355 3.503l-.002.005c-.449 1.17-.898 2.339-1.357 3.508-.502 1.253-1.504 1.88-3.049 1.88-.793 0-2.506-.168-5.137-.544a63.265 63.265 0 001.326-3.508 17.67 17.67 0 01-2.662 2.172c-1.879 1.253-3.55 1.88-5.053 1.88-1.127 0-1.963-.293-2.547-.836-.585-.543-.877-1.503-.961-2.84-2.881 2.422-5.429 3.634-7.6 3.634-2.464 0-3.675-1.17-3.592-3.55 0-.71.167-1.545.418-2.464a157.381 157.381 0 002.172-6.306c.167-.668.292-1.21.292-1.712 0-.668-.125-1.295-.418-1.796 2.005-.918 3.8-1.336 5.387-1.336 1.796 0 2.673.835 2.631 2.506 0 .375-.041.751-.167 1.169-.125.626-.501 1.837-1.169 3.633a88.372 88.372 0 00-1.587 4.552c-.376 1.086-.209 1.629.459 1.629.418 0 1.003-.502 1.754-1.504.752-1.002 1.504-2.297 2.255-3.842.502-1.044 1.044-2.464 1.587-4.218a5.96 5.96 0 00.167-2.84c1.671-.751 3.299-1.085 4.845-1.085 1.921 0 2.881.668 2.839 2.046 0 .543-.167 1.211-.417 2.005a313.286 313.286 0 00-2.715 7.725c-.167.585 0 .92.418.92.292 0 .668-.21 1.127-.586 1.17-.96 2.464-2.338 3.884-4.134a4.78 4.78 0 01.382-.402c.124-.443.247-.894.37-1.352.209-.835.334-1.587.334-2.171.042-.877-.125-1.587-.501-2.172 2.464-1.253 4.593-1.88 6.306-1.88 1.42 0 2.046.794 1.879 2.381-.042.501-.209 1.17-.459 2.005 3.299-2.923 6.055-4.385 8.268-4.385 2.046 0 2.923 1.17 2.631 3.55-.125.918-.418 2.255-.96 3.967-.669 2.088-1.044 3.424-1.17 4.009l-.021.125a3.157 3.157 0 00-.062.501c0 .418.125.627.334.627.292 0 .668-.21 1.169-.669.991-.836 1.959-1.833 2.904-2.99.421-1.198.907-2.63 1.439-4.276.167-.668.293-1.21.293-1.712 0-.668-.126-1.295-.418-1.796 2.004-.918 3.8-1.336 5.387-1.336 1.796 0 2.673.835 2.631 2.506 0 .375-.042.751-.167 1.169-.125.626-.501 1.837-1.169 3.633a88.372 88.372 0 00-1.587 4.552c-.376 1.086-.209 1.629.459 1.629.418 0 1.002-.502 1.754-1.504s1.503-2.297 2.255-3.842c.501-1.044 1.044-2.464 1.587-4.218.292-.96.334-1.879.167-2.84 1.67-.751 3.299-1.085 4.844-1.085 1.921 0 2.882.668 2.84 2.046 0 .543-.167 1.211-.418 2.005a318.067 318.067 0 00-2.714 7.725c-.167.585 0 .92.418.92.292 0 .668-.21 1.127-.586 1.169-.96 2.464-2.338 3.884-4.134.123-.14.231-.26.325-.35.129-.46.257-.927.385-1.404.209-.835.334-1.587.334-2.171.042-.877-.125-1.587-.501-2.172 2.464-1.253 4.593-1.88 6.306-1.88 1.419 0 2.046.794 1.879 2.381-.042.501-.209 1.17-.46 2.005 3.299-2.923 6.056-4.385 8.269-4.385 2.046 0 2.923 1.17 2.631 3.55-.125.918-.418 2.255-.961 3.967-.668 2.088-1.044 3.424-1.169 4.009l-.021.125a3.159 3.159 0 00-.062.501c0 .418.125.627.334.627.292 0 .668-.21 1.169-.669 1.336-1.127 2.631-2.547 3.884-4.26.209-.291.376-.417.501-.417.167 0 .292.293.334.835z" fill="#fff"/><path fill-rule="evenodd" clip-rule="evenodd" d="M111.677 22.389c-.543.543-1.336 2.255-2.297 5.136-.793 2.297-1.796 5.763-3.007 10.44-1.795 6.766-6.347 10.148-13.655 10.148-2.464 0-4.344-.376-5.638-1.17-1.295-.792-1.921-1.878-1.88-3.256.043-1.17.544-2.13 1.504-2.924.877-.71 1.963-1.085 3.132-1.085.292 0 .418.041.501.083.042.042.042.209 0 .46-.125.5-.209.96-.209 1.378-.041 1.127.251 2.088.92 2.756.626.71 1.46 1.002 2.421.96 1.378-.083 2.506-.793 3.425-2.171.918-1.337 1.962-3.8 3.132-7.392a11.015 11.015 0 01-3.884 2.13c-1.17.376-2.255.543-3.174.501-2.714-.209-4.009-1.838-3.925-4.928.083-2.756 1.336-5.47 3.716-8.06 2.59-2.797 5.555-4.176 8.854-4.176 1.211 0 2.296.376 3.257 1.086.752-.752 1.754-1.086 3.09-1.086 1.42.042 2.673.418 3.717 1.17zm-8.561 2.255c.083-.25 0-.46-.209-.627a1.166 1.166 0 00-.752-.25c-.751 0-1.712 1.002-2.881 2.965-1.211 1.963-2.046 4.009-2.63 6.055-.168.668-.293 1.17-.293 1.504 0 .5.125.751.46.835.834.167 1.837-.835 3.09-2.965 1.169-2.005 2.213-4.51 3.215-7.517zm128.372 2.881c.961-2.881 1.754-4.593 2.297-5.136-1.044-.752-2.255-1.128-3.717-1.17-1.336 0-2.338.334-3.09 1.086-.961-.71-2.046-1.086-3.257-1.086-3.299 0-6.264 1.378-8.854 4.176-2.38 2.59-3.633 5.304-3.716 8.06-.084 3.09 1.211 4.72 3.925 4.928.919.042 2.005-.125 3.174-.501a11.013 11.013 0 003.884-2.13c-1.17 3.591-2.214 6.055-3.132 7.392-.919 1.378-2.047 2.088-3.425 2.171-.96.042-1.795-.25-2.422-.96-.668-.668-.96-1.629-.919-2.756 0-.418.084-.877.209-1.378.042-.251.042-.418 0-.46-.083-.042-.209-.083-.501-.083-1.169 0-2.255.375-3.132 1.085-.96.794-1.462 1.754-1.503 2.924-.042 1.378.584 2.464 1.879 3.257 1.294.793 3.174 1.17 5.638 1.17 7.308 0 11.86-3.383 13.655-10.149 1.211-4.677 2.214-8.143 3.007-10.44zm-6.431-3.508c.209.167.292.376.209.627-1.003 3.007-2.088 5.512-3.216 7.517-1.253 2.13-2.255 3.132-3.09 2.965-.334-.084-.459-.334-.459-.835 0-.335.125-.836.292-1.504.585-2.046 1.42-4.092 2.631-6.055 1.169-1.963 2.13-2.965 2.881-2.965.293 0 .543.083.752.25zm26.81 3.216c-.083 3.299-1.503 6.055-4.259 8.185-2.59 2.046-5.596 3.09-9.021 3.09-4.552 0-6.765-2.004-6.64-6.055.084-3.257 1.545-5.972 4.427-8.102 2.631-2.004 5.638-3.048 9.062-3.048 4.427 0 6.556 1.963 6.431 5.93zm-7.099-2.13c.042-.835-.209-1.21-.752-1.21-.752 0-1.754 1.502-3.048 4.467-1.295 3.007-1.963 5.095-1.921 6.39 0 .793.25 1.17.751 1.17.835 0 1.88-1.504 3.132-4.47 1.17-2.797 1.754-4.927 1.838-6.347z" fill="#fff"/><path d="M263.059 29.029c2.631-2.005 4.552-3.717 5.805-5.179.109-.219.155-.565.22-1.066l.001-.002v-.007l.029-.22c-.042-.71-.209-1.043-.501-1.002-.793.126-1.754.21-2.923.21a55.64 55.64 0 01-3.967-.168c-1.754-.125-2.924-.167-3.592-.167-.96 0-1.796.376-2.464 1.086-.751.794-1.503 2.213-2.338 4.218-.042.125-.094.24-.146.355a3.48 3.48 0 00-.147.355c-.083.083-.041.25.084.417.125.167.334.167.668.042.626-.292 1.336-.46 2.172-.543.71-.041 2.255-.083 4.635-.083-.209.167-1.921 1.545-5.095 4.134-2.088 1.67-3.675 3.09-4.844 4.218-.167.167-.251.46-.251.918-.041 1.295.126 1.922.543 1.922 1.044 0 2.924.083 5.68.25 2.756.167 4.593.25 5.596.25 1.127 0 2.004-.333 2.756-1.085.835-.835 1.67-2.297 2.422-4.427.084-.25 0-.417-.209-.5-.209-.084-.417-.084-.71.04-1.002.419-3.758.46-8.352.126.668-.752 2.297-2.088 4.928-4.092z" fill="#fff"/><path fill-rule="evenodd" clip-rule="evenodd" d="M268.655 28.862c.083-1.17.167-1.921.25-2.297.084-.334.335-.752.794-1.211 1.044-1.211 2.506-2.172 4.427-2.924 1.879-.751 3.8-1.127 5.721-1.127 2.547 0 4.468.585 5.804 1.712 1.17 1.086 1.713 2.464 1.671 4.176-.084 2.673-1.253 5.179-3.592 7.517-2.505 2.547-5.428 3.8-8.727 3.8-4.051 0-6.014-1.086-5.972-3.299.042-2.088 1.294-3.842 3.675-5.262 2.213-1.252 4.635-1.795 7.182-1.67.126-.418.209-.877.209-1.253.042-1.629-.626-2.506-1.962-2.63-1.337-.126-2.84.25-4.469 1.169-1.67.918-3.09 2.171-4.343 3.675-.167.208-.292.292-.418.292-.208 0-.292-.209-.25-.668zm6.932 5.01c-.161.364-.206.766-.246 1.131l-.004.04c-.042.793.208 1.169.668 1.169 1.211 0 2.338-2.005 3.382-5.972-.751.167-1.461.543-2.129 1.086-.794.751-1.337 1.545-1.671 2.547z" fill="#fff"/><path d="M297.386 22.055c1.712-4.97 3.174-8.06 4.343-9.271.209-.25.334-.418.293-.543 0-.25-.877-.376-2.673-.376-1.963 0-3.466.292-4.552.835-1.086.543-1.921 1.504-2.506 2.798-1.962 4.26-3.633 9.438-5.011 15.577-.292 1.378-.459 2.547-.501 3.466-.042 1.378.251 2.38.877 3.007.626.626 1.629.919 3.09.919 1.295 0 2.798-.543 4.51-1.67 1.587-1.045 3.007-2.381 4.302-3.968.376-.46.626-.877.71-1.337.125-.417.167-1.294.167-2.547.042-.376-.042-.585-.251-.585-.125 0-.25.126-.417.376-1.295 1.963-2.59 3.466-3.884 4.552-.543.46-.961.71-1.253.71-.334 0-.459-.292-.459-.835 0-.292.083-.668.208-1.128.71-2.965 1.713-6.305 3.007-9.98z" fill="#fff"/><path fill-rule="evenodd" clip-rule="evenodd" d="M331.111 31.244c-.387.438-.799.883-1.235 1.334-1.378 1.42-2.339 2.13-2.798 2.13-.668 0-.835-.585-.543-1.754.292-1.17 1.086-3.758 2.422-7.767 1.128-3.425 1.963-6.223 2.422-8.478.126-.584.209-1.127.209-1.628.042-1.963-.793-2.965-2.547-2.965-2.088 0-4.176.417-6.264 1.336.877.877 1.127 2.213.835 4.009-.167 1.211-.46 2.547-.877 4.05-.71-.125-1.462-.166-2.213-.166-2.84 0-5.513 1.21-8.06 3.633-2.631 2.464-4.009 5.303-4.176 8.435-.209 3.425 1.169 5.137 4.051 5.137 2.38 0 4.76-1.044 7.182-3.132.669 2.088 2.088 3.132 4.26 3.132 1.503 0 3.048-.501 4.719-1.545a16.167 16.167 0 002.429-1.899c.372 2.26 1.797 3.402 4.252 3.402 2.339 0 4.552-1.044 6.724-3.048.626 2.046 2.004 3.048 4.176 3.048 2.434 0 4.739-1.114 6.935-3.384.302 2.284 1.653 3.426 4.006 3.426 2.381 0 4.761-1.044 7.183-3.132.668 2.088 2.088 3.132 4.26 3.132 1.503 0 3.048-.501 4.719-1.545a16.32 16.32 0 002.302-1.779c.118.851.445 1.56.997 2.113.793.835 1.962 1.253 3.591 1.211 2.923-.042 5.847-1.837 8.812-5.429.417-.5.668-.919.793-1.253.125-.375.209-.96.292-1.879.084-1.002 0-1.503-.292-1.503-.125 0-.251.125-.418.334-1.127 1.545-2.714 3.215-4.719 5.011-.542.501-.96.752-1.252.752-.209 0-.334-.209-.334-.627 0-.292.125-.751.292-1.336 1.169-3.299 2.046-5.721 2.631-7.266.209-.627.334-1.17.334-1.67.042-1.588-.835-2.381-2.631-2.381-1.796 0-3.591.334-5.345 1.002.459.877.459 1.963.041 3.216l-.477 1.293c-.51 1.384-.962 2.61-1.37 3.694a39.778 39.778 0 01-1.869 2.07c-1.378 1.42-2.339 2.13-2.798 2.13-.668 0-.836-.585-.543-1.754.292-1.17 1.086-3.758 2.422-7.767 1.127-3.425 1.963-6.223 2.422-8.478.125-.584.209-1.127.209-1.628.042-1.963-.794-2.965-2.548-2.965-2.088 0-4.176.417-6.264 1.336.877.877 1.128 2.213.836 4.009-.167 1.211-.46 2.547-.877 4.05-.71-.125-1.462-.166-2.214-.166-2.839 0-5.512 1.21-8.06 3.633-1.91 1.79-3.16 3.777-3.765 5.93a23.21 23.21 0 01-3.167 3.174c-.376.334-.71.5-.96.5-.334 0-.46-.292-.46-.876 0-.376.084-.794.209-1.253.543-1.963 1.17-3.926 1.921-5.805.961-2.422 1.712-3.842 2.297-4.301-.96-.71-2.297-1.086-3.925-1.086-1.17 0-2.047.334-2.631.919-.627-.627-1.754-.919-3.467-.919-3.048 0-5.846 1.253-8.393 3.759-1.938 1.905-3.175 3.98-3.693 6.224zm-9.044-6.85c.167-.544-.126-.836-.835-.836-.585 0-1.295.626-2.13 1.92-.961 1.463-1.838 3.3-2.631 5.597-.418 1.21-.627 2.171-.668 2.881-.042.752.208 1.128.668 1.128.668 0 1.587-1.086 2.714-3.257 1.128-2.13 2.088-4.594 2.882-7.434zm21.882-.627c.418 0 .627.167.627.5-.042 1.003-.794 3.008-2.214 5.973-1.587 3.215-2.756 4.844-3.591 4.844-.334 0-.46-.293-.46-.835.042-1.337.669-3.383 1.921-6.056 1.379-2.965 2.631-4.426 3.717-4.426zm22.801.626c.167-.543-.125-.835-.835-.835-.584 0-1.294.626-2.13 1.92-.96 1.463-1.837 3.3-2.63 5.597-.418 1.21-.627 2.171-.669 2.881-.041.752.209 1.128.669 1.128.668 0 1.586-1.086 2.714-3.257 1.127-2.13 2.088-4.594 2.881-7.434z" fill="#fff"/><path d="M121.157 17.294c.877-.543 1.336-1.211 1.378-2.046 0-.627-.251-1.086-.794-1.462a3.233 3.233 0 00-1.67-.46 4.91 4.91 0 00-2.506.669c-.877.543-1.336 1.21-1.378 2.046 0 .627.251 1.086.793 1.462.46.292 1.003.46 1.671.46.919 0 1.754-.21 2.506-.67zm7.976 0c.877-.543 1.336-1.211 1.378-2.046.042-.627-.251-1.086-.793-1.462a3.236 3.236 0 00-1.671-.46 4.91 4.91 0 00-2.506.669c-.877.543-1.336 1.21-1.378 2.046 0 .627.251 1.086.794 1.462.459.292 1.002.46 1.67.46.919 0 1.754-.21 2.506-.67zm36.707-2.046c-.041.835-.501 1.503-1.378 2.046-.751.46-1.587.668-2.505.668-.668 0-1.211-.167-1.671-.46-.543-.375-.793-.834-.793-1.46.042-.836.501-1.504 1.378-2.047a4.903 4.903 0 012.506-.668c.626 0 1.169.167 1.67.459.585.376.835.835.793 1.462zm6.64 2.046c.877-.543 1.337-1.211 1.378-2.046 0-.627-.25-1.086-.793-1.462a3.233 3.233 0 00-1.67-.46c-.877 0-1.713.21-2.506.669-.877.543-1.336 1.21-1.378 2.046 0 .627.25 1.086.793 1.462.46.292 1.003.46 1.671.46.918 0 1.754-.21 2.505-.67zm72.163-2.046c-.042.835-.501 1.503-1.378 2.046-.752.46-1.587.668-2.506.668-.668 0-1.211-.167-1.671-.46-.542-.375-.793-.834-.793-1.46.042-.836.501-1.504 1.378-2.047a4.906 4.906 0 012.506-.668c.626 0 1.169.167 1.67.459.543.376.835.835.794 1.462zm6.64 2.046c.877-.543 1.336-1.211 1.378-2.046 0-.627-.251-1.086-.794-1.462a3.233 3.233 0 00-1.67-.46 4.91 4.91 0 00-2.506.669c-.877.543-1.336 1.21-1.378 2.046 0 .627.251 1.086.794 1.462.459.292 1.002.46 1.67.46.919 0 1.754-.21 2.506-.67zM26.444 4.85c.877-.544 1.336-1.212 1.378-2.047 0-.626-.25-1.086-.794-1.462a3.233 3.233 0 00-1.67-.459 4.91 4.91 0 00-2.506.668c-.877.543-1.336 1.211-1.378 2.046 0 .627.25 1.086.794 1.462.459.292 1.002.46 1.67.46.919 0 1.754-.21 2.506-.669z" fill="#fff"/></svg>