<svg width="170" height="170" fill="none" xmlns="http://www.w3.org/2000/svg"><path d="M169.941 0H.059v169.882h169.882V0z" fill="#F6D119"/><path fill-rule="evenodd" clip-rule="evenodd" d="M21.661 116.831l63.34-.477 63.338.477-63.339.672-63.339-.672zM76.87 37.76h23.952-23.953zm23.952 15.361H85.46a546.24 546.24 0 003.783-5.002 79.726 79.726 0 011.573-2.069c.313-.393.609-.787.897-1.171.217-.288.429-.571.641-.844.477-.654.937-1.255 1.379-1.82.196-.263.381-.502.551-.722.198-.255.375-.484.527-.693H83.005c.376.498.693 1.046.953 1.644.406.92.6 1.927.6 3.005v7.708h-3.04v-7.725a4.77 4.77 0 00-.353-1.804 4.671 4.671 0 00-.99-1.467 4.577 4.577 0 00-1.468-.99 4.437 4.437 0 00-1.803-.353 4.91 4.91 0 00-1.82.353 4.75 4.75 0 00-1.485.99c-.425.425-.76.92-.99 1.467a4.438 4.438 0 00-.354 1.804c0 .636.124 1.237.354 1.82a4.75 4.75 0 00.99 1.485c.424.424.919.76 1.485.99.565.248 1.184.354 1.82.354h2.405v3.04h-2.405a7.457 7.457 0 01-2.987-.6 7.837 7.837 0 01-2.457-1.662 7.916 7.916 0 01-1.662-2.475 7.396 7.396 0 01-.601-2.988c0-1.078.194-2.068.601-3.005a7.966 7.966 0 011.662-2.44 8.32 8.32 0 012.457-1.644 8.185 8.185 0 012.952-.547h-7.708v31.678h23.997a8.092 8.092 0 01-.716-.035H69.179a546.24 546.24 0 003.783-5.003c.512-.69 1.025-1.38 1.573-2.069.313-.393.609-.787.897-1.17.216-.29.429-.572.64-.845.344-.47.679-.914.998-1.336l.002-.003.362-.482c.196-.261.381-.5.552-.72.197-.256.375-.485.526-.694H69.18v-3.04h15.36a250.925 250.925 0 00-3.783 5.002c-.512.69-1.025 1.38-1.555 2.069-.25.325-.493.65-.731.97-.267.358-.528.71-.79 1.045-.343.47-.677.914-.996 1.336l-.365.485c-.196.262-.381.5-.551.72-.198.256-.375.485-.527.694h11.811a8.367 8.367 0 01-.957-1.644 7.397 7.397 0 01-.6-2.988c0-1.078.194-2.068.6-3.005a7.966 7.966 0 011.662-2.44 8.319 8.319 0 012.457-1.643 7.403 7.403 0 012.952-.601c1.079 0 2.069.194 3.005.6.92.407 1.733.955 2.44 1.645a7.807 7.807 0 011.644 2.44c.307.693.493 1.436.566 2.223V53.12zm0-3.04V37.76a249.47 249.47 0 00-3.783 5.002c-.513.69-1.026 1.38-1.556 2.069-.25.325-.493.65-.731.97-.267.358-.528.709-.79 1.045-.343.47-.677.914-.996 1.336-.124.165-.246.326-.364.485-.197.261-.382.5-.552.72-.198.256-.375.485-.527.694h9.299zm-3.005 19.357v-7.689a4.75 4.75 0 00-.354-1.804 4.67 4.67 0 00-.99-1.467 4.576 4.576 0 00-1.467-.99 4.436 4.436 0 00-1.803-.354 4.91 4.91 0 00-1.821.354 4.748 4.748 0 00-1.485.99 4.58 4.58 0 00-.99 1.467 4.437 4.437 0 00-.354 1.803c0 .637.124 1.238.354 1.82.247.567.566 1.062.99 1.486.424.424.92.76 1.485.99.38.166.785.269 1.202.318h2.97v.035h.053v3.04h2.21z" fill="#4B2613"/><path d="M53.658 123.938c.123 0 .212-.035.247-.089a.371.371 0 00.07-.176c0-.106 0-.248-.017-.442-.017-.283-.035-.478-.035-.584 0-.194-.018-.353-.053-.459-.036-.106-.124-.159-.265-.159-.089 0-.16 0-.212.017-.053.018-.071.036-.071.053-.106 0-.3-.035-.584-.106a2.197 2.197 0 00-.247-.053c-.371-.07-.725-.123-1.078-.176a6.27 6.27 0 00-.955-.071c-.778 0-1.485.141-2.121.424a5.12 5.12 0 00-1.68 1.167 5.33 5.33 0 00-1.078 1.697 5.483 5.483 0 00-.371 1.997c0 .69.123 1.326.389 1.963a5.229 5.229 0 001.096 1.661c.46.478 1.007.849 1.626 1.114a4.94 4.94 0 001.962.407 8.39 8.39 0 001.697-.159 6.052 6.052 0 001.468-.513c.282-.124.46-.301.53-.495.017-.053.07-.159.124-.283.106-.212.176-.389.247-.53.053-.142.088-.23.088-.265 0-.018-.035-.053-.088-.089a.38.38 0 00-.212-.053.34.34 0 00-.23.106c-.07.071-.159.159-.247.283-.071.088-.106.141-.16.177-.335.353-.813.619-1.431.795a4.21 4.21 0 01-.796.177 5.75 5.75 0 01-.76.053c-.477 0-.955-.124-1.397-.371a3.824 3.824 0 01-1.184-1.025 5.38 5.38 0 01-1.114-3.271c0-.618.089-1.184.266-1.697.176-.512.424-.972.76-1.343a3.385 3.385 0 011.22-.884 3.877 3.877 0 011.59-.318c.336 0 .654.035.937.088.283.071.566.159.849.301.141.07.265.159.371.282.106.106.23.248.354.425.123.141.212.247.283.318a.251.251 0 00.212.106z" fill="#4B2613"/><path d="M57.989 127.42c-.23 0-.584 0-1.043-.017v-.036l1.096-2.828 1.025 2.828v.036c-.477.017-.83.017-1.078.017zm1.202-4.065l-.566-1.45h-.495a18.34 18.34 0 01-1.626-.088l.053.141c.265.194.477.407.636.654.16.248.248.477.248.725 0 .088 0 .141-.018.177l-2.775 7.035a2.665 2.665 0 01-.513.831c-.212.195-.46.354-.742.46l-.16.194c.319-.053.566-.088.76-.106.195-.017.39-.017.566-.017.16 0 .318 0 .495.017.177.018.407.053.672.089v-.142a.668.668 0 01-.212-.495c0-.088 0-.177.017-.23.018-.07.053-.159.107-.3v-.018l1.025-2.775c.389-.036.848-.053 1.379-.053.389 0 .813.017 1.308.053l.901 2.545a.695.695 0 01.053.195c.018.088.036.177.036.265 0 .124-.07.283-.23.495-.106.141-.16.23-.16.3v.177c.337-.053.637-.088.885-.123.247-.018.477-.036.725-.036.194 0 .424.018.654.036.23.017.512.07.83.123v-.194a1.618 1.618 0 01-.618-.46 2.375 2.375 0 01-.425-.76l-2.81-7.265z" fill="#4B2613"/><path d="M64.246 131.893c.213 0 .425 0 .654.018.23.017.513.035.884.07v-.177c-.442-.212-.671-.601-.707-1.149a70.728 70.728 0 01-.088-3.146.358.358 0 00.07-.089c.071-.088.142-.176.213-.247.212.247.442.513.671.813.23.301.53.69.884 1.167.142.194.283.389.39.53.07.089.194.248.353.477.247.319.442.584.619.778.159.195.353.389.583.566.212.177.477.318.76.407.283.106.601.159.955.159.37 0 .707-.053 1.025-.177.318-.124.477-.212.477-.265 0-.036-.017-.071-.053-.106-.035-.036-.124-.036-.265-.036-.106 0-.194 0-.265.018-.07.018-.124.035-.16.035-.052.018-.088.018-.105.018-.336 0-.69-.194-1.096-.601-.39-.407-.902-1.043-1.538-1.892a19.58 19.58 0 01-.69-.883c-.742-.937-1.272-1.627-1.59-2.086.052-.053.123-.142.212-.248.512-.566.919-1.043 1.255-1.396.335-.372.654-.725.972-1.061.3-.318.619-.601.937-.866.318-.265.654-.442.972-.566l.141-.177c-.265.018-.53.036-.813.053-.353.018-.618.036-.76.036-.265 0-.707-.036-1.308-.089l-.141.177a.63.63 0 01.07.336c0 .177-.035.371-.123.566a2.583 2.583 0 01-.301.53c-.336.46-.707.937-1.114 1.414-.406.477-.83.937-1.272 1.397v-1.591c0-.425.017-.831.035-1.22.018-.318.088-.601.177-.849a.954.954 0 01.46-.548v-.141c-.178 0-.407.018-.708.053-.353.018-.6.035-.742.035-.195 0-.407 0-.619-.017-.212-.018-.495-.036-.849-.071v.141c.266.177.425.372.513.601.089.213.142.478.16.778.035.601.052 1.238.07 1.874.018.636.018 1.273.018 1.892 0 1.608 0 2.828-.018 3.641 0 .265-.07.477-.194.654a1.376 1.376 0 01-.478.424v.177c.318-.035.584-.053.796-.07.265-.071.477-.071.671-.071z" fill="#4B2613"/><path d="M73.474 131.875h1.043c.371 0 .796.018 1.29.018h1.733c.336 0 .566-.054.672-.142a.784.784 0 00.23-.371l.017-.018c.053-.194.16-.459.354-.795.159-.301.247-.495.247-.601 0-.018-.035-.053-.088-.106a.356.356 0 00-.23-.071c-.088 0-.194.053-.283.141-.088.089-.212.23-.371.407-.212.265-.371.442-.495.53-.212.177-.424.301-.636.336-.212.053-.495.071-.831.071-.23 0-.442-.018-.637-.036a1.893 1.893 0 01-.548-.141.97.97 0 01-.424-.318.82.82 0 01-.177-.513c-.035-.672-.053-1.237-.07-1.697-.018-.459-.018-.972-.018-1.538.76 0 1.308.018 1.662.053.265.018.512.089.707.177a.905.905 0 01.46.495h.494c-.017-.265-.017-.424-.017-.513v-.459c0-.195.017-.442.053-.707.017-.142.035-.266.035-.372h-.495c-.177.283-.353.46-.513.548-.159.089-.37.124-.618.142-.124 0-.3.017-.53.017-.266 0-.672 0-1.22-.017v-.866c0-.99.017-1.715.053-2.175 0-.088.017-.177.017-.283 0-.265.018-.442.053-.53l.372-.035a10.2 10.2 0 01.848-.053c.548 0 .937.053 1.202.159.265.106.442.247.566.442 0 0 .018.035.053.07.035.089.088.16.141.213.053.053.142.07.248.07a.372.372 0 00.212-.053c.053-.035.07-.07.07-.106 0-.106-.017-.247-.035-.442a4.894 4.894 0 01-.053-.689c0-.071-.053-.124-.141-.177-.089-.053-.212-.071-.354-.106a3.38 3.38 0 00-.406-.035h-.46c-.247 0-.654.017-1.22.053-.07 0-.194.017-.336.017-.3.018-.565.036-.777.036-.212 0-.39.017-.513.017-.16 0-.389-.017-.707-.035-.3-.018-.69-.053-1.131-.106l-.195-.018.035.212c.301.159.513.336.654.566.142.23.213.46.23.743.036.601.053 1.219.071 1.856.018.636.018 1.272.018 1.891v1.715c0 .406 0 .901-.018 1.52 0 .248-.106.531-.3.831a1.486 1.486 0 01-.283.354 1.075 1.075 0 01-.283.229v.266c.088 0 .141-.018.194-.018.354-.035.637-.071.867-.089.159.054.353.036.512.036zm18.686.035c.194 0 .424 0 .654.018.23.018.53.035.883.071v-.177c-.442-.212-.671-.601-.689-1.149a64.4 64.4 0 01-.088-3.606v-2.723c0-.335.017-.654.035-.954.018-.318.088-.601.177-.849a.954.954 0 01.46-.548v-.141c-.16 0-.39.018-.708.053-.353.018-.6.035-.742.035-.195 0-.39 0-.601-.017-.212-.018-.495-.036-.867-.071v.141c.266.177.442.372.53.601.09.212.125.478.142.796.053 1.06.089 2.05.089 2.987-.831.018-1.644.036-2.475.036-.972 0-1.821-.018-2.581-.053v-.831c0-.955.017-1.644.053-2.086.018-.318.088-.619.177-.866a.95.95 0 01.46-.548v-.177a4.95 4.95 0 00-.69.053c-.371.018-.636.035-.778.035-.194 0-.407 0-.619-.017-.212-.018-.495-.036-.848-.071v.141c.265.177.424.372.512.584.089.212.142.477.16.795a68.07 68.07 0 01.088 3.748c0 1.608 0 2.828-.018 3.641a1.1 1.1 0 01-.194.654 1.379 1.379 0 01-.478.425v.177c.319-.036.584-.054.796-.071.212-.018.424-.018.619-.018.212 0 .424 0 .654.018.23.017.53.035.884.071v-.177c-.442-.212-.672-.601-.69-1.149a64.507 64.507 0 01-.088-3.607v-.035a120.19 120.19 0 012.58-.035c.814 0 1.627.017 2.476.035v.053c0 1.609 0 2.829-.018 3.642 0 .265-.07.477-.177.654a1.236 1.236 0 01-.477.424v.177c.318-.036.583-.053.813-.071.195-.018.389-.018.583-.018z" fill="#4B2613"/><path d="M98.488 122.541c.495 0 .955.106 1.379.319.424.212.795.53 1.114.954.318.424.565.937.742 1.538.177.601.265 1.291.265 2.051 0 .601-.088 1.166-.265 1.661-.177.495-.424.92-.742 1.273-.319.354-.69.619-1.114.796a3.564 3.564 0 01-1.379.265c-.477 0-.92-.124-1.344-.371-.424-.248-.777-.601-1.096-1.043-.318-.442-.547-.955-.724-1.521a5.974 5.974 0 01-.265-1.785c0-.619.088-1.184.247-1.679.16-.513.407-.937.707-1.309.3-.353.672-.636 1.078-.83.46-.23.92-.319 1.397-.319zm0-.724c-.69 0-1.344.141-1.962.406a4.732 4.732 0 00-1.626 1.132 5.545 5.545 0 00-1.097 1.661 4.923 4.923 0 00-.388 1.962c0 .69.123 1.326.388 1.963a5.229 5.229 0 001.097 1.661c.46.478 1.007.849 1.626 1.114a4.94 4.94 0 001.962.407 4.92 4.92 0 001.962-.389 4.852 4.852 0 001.627-1.079 5.152 5.152 0 001.096-1.661 5.21 5.21 0 00.389-2.033c0-.707-.107-1.361-.336-1.98-.23-.619-.548-1.167-.99-1.626-.442-.478-.973-.831-1.609-1.114-.619-.283-1.343-.424-2.139-.424zm9.192 10.288c.584 0 1.079-.035 1.503-.124a2.5 2.5 0 001.096-.512c.318-.266.583-.655.76-1.203.177-.53.283-1.255.283-2.139 0-.07 0-.247.018-.53v-2.581c0-.566.017-1.114.035-1.626.018-.424.071-.743.159-.937.088-.195.248-.354.495-.477v-.124c-.177 0-.407.018-.707.053-.354.018-.601.035-.742.035-.071 0-.23 0-.425-.017a48.83 48.83 0 01-.672-.053v.141c.301.177.495.354.584.53.088.177.141.46.159.849.018.318.018.831.018 1.502v1.149c0 .619-.018.99-.018 1.096v.584c0 .318 0 .601-.018.831-.017.618-.07 1.131-.177 1.502-.106.389-.247.672-.441.866a1.46 1.46 0 01-.708.389 4.438 4.438 0 01-1.06.106c-.318 0-.601-.035-.831-.088a1.296 1.296 0 01-.619-.353c-.194-.177-.336-.442-.459-.778-.124-.354-.177-.796-.195-1.361-.018-.425-.018-.761-.035-1.008v-3.465c0-.336.017-.654.035-.955a3.3 3.3 0 01.177-.866.95.95 0 01.46-.548v-.141c-.16 0-.389.018-.69.053-.353.018-.601.035-.76.035-.194 0-.389 0-.601-.017-.212-.018-.495-.036-.866-.071v.141c.265.177.424.372.512.601.089.23.142.478.159.778.018.477.018.831.018 1.096 0 .354 0 .813-.018 1.379-.017.636-.017 1.061-.017 1.308 0 .177 0 .513.017 1.043l.018.849c0 .654.124 1.202.354 1.608.23.425.512.725.866.937.353.212.725.336 1.114.407.371.071.777.106 1.219.106zm6.541-.035c.531 0 .99-.089 1.414-.248a2.72 2.72 0 001.008-.672c.265-.282.477-.583.601-.937.124-.335.195-.707.195-1.06 0-.336-.071-.637-.195-.937a3.733 3.733 0 00-.495-.796 5.768 5.768 0 00-.654-.654c-.23-.194-.513-.406-.866-.671-.619-.46-1.079-.867-1.379-1.185a1.632 1.632 0 01-.442-1.131c0-.354.124-.654.389-.919.265-.266.53-.389.831-.389.247 0 .495.053.742.141.248.088.495.23.707.424.053.053.124.177.23.372.106.194.212.353.301.459a.394.394 0 00.3.159c.106 0 .195-.035.23-.106.053-.07.071-.124.071-.177a8.91 8.91 0 00-.053-.795 10.456 10.456 0 01-.053-.884c0-.035-.018-.071-.071-.106-.035-.035-.124-.053-.23-.053-.124 0-.23.018-.3.035-.071.018-.142.053-.213.071-.017.018-.035.018-.053.018-.123 0-.335-.036-.636-.106a4.898 4.898 0 00-.848-.106c-.46 0-.849.07-1.185.229a2.717 2.717 0 00-.848.601c-.23.248-.389.531-.495.831a2.723 2.723 0 00-.159.92c0 .3.053.601.176.866.106.265.265.512.46.725.194.212.389.424.619.583.212.177.495.389.848.619.318.229.584.424.778.583.194.159.389.336.566.53.176.195.318.407.406.619.106.23.159.477.159.742 0 .283-.053.531-.141.743a1.8 1.8 0 01-.389.548 1.772 1.772 0 01-.513.318 1.498 1.498 0 01-.548.106c-.229 0-.512-.088-.83-.247a2.775 2.775 0 01-.796-.601c-.088-.106-.194-.301-.3-.584a2.7 2.7 0 00-.195-.389c-.053-.07-.106-.123-.177-.123-.159 0-.265.053-.336.159a.575.575 0 00-.106.318c0 .124 0 .265.018.424.018.142.035.283.053.389 0 .071.018.106.018.124 0 .212.035.389.106.513a.657.657 0 00.406.282c.053.018.142.036.283.089.336.106.619.177.849.23.194.07.442.106.742.106zm5.038-.195h1.043c.372 0 .796.018 1.291.018h1.732c.336 0 .566-.054.672-.142a.783.783 0 00.23-.371l.017-.018a3.43 3.43 0 01.354-.795c.159-.301.247-.495.247-.601 0-.018-.035-.053-.088-.106a.356.356 0 00-.23-.071c-.088 0-.194.053-.283.141-.088.089-.212.23-.371.407-.212.265-.371.442-.495.53-.212.177-.424.301-.636.336-.212.053-.495.071-.831.071-.23 0-.442-.018-.636-.036a1.882 1.882 0 01-.548-.141.97.97 0 01-.425-.318.819.819 0 01-.176-.513c-.036-.672-.054-1.237-.071-1.697-.018-.459-.018-.972-.018-1.538.76 0 1.308.018 1.662.053.265.018.512.089.707.177a.91.91 0 01.46.495h.495c-.018-.265-.018-.424-.018-.513v-.459c0-.195.018-.442.053-.707.018-.142.035-.266.035-.372h-.495c-.177.283-.353.46-.512.548-.159.089-.372.124-.619.142-.124 0-.301.017-.53.017-.266 0-.672 0-1.22-.017v-.866c0-.99.017-1.715.053-2.175 0-.088.018-.177.018-.283 0-.265.017-.442.053-.53l.371-.035c.389-.036.672-.053.848-.053.548 0 .937.053 1.202.159.266.106.442.247.566.442 0 0 .018.035.053.07.035.089.088.16.142.213.053.053.141.07.247.07a.372.372 0 00.212-.053c.053-.035.071-.07.071-.106 0-.106-.018-.247-.036-.442a4.94 4.94 0 01-.053-.689c0-.071-.053-.124-.141-.177-.088-.053-.212-.071-.354-.106a3.36 3.36 0 00-.406-.035h-.46c-.247 0-.654.017-1.219.053-.071 0-.195.017-.336.017-.301.018-.566.036-.778.036-.212 0-.389.017-.513.017-.159 0-.389-.017-.707-.035-.3-.018-.689-.053-1.131-.106l-.195-.018.036.212c.3.159.512.336.654.566.141.23.212.46.229.743.036.601.054 1.219.071 1.856.018.636.018 1.272.018 1.891v1.715c0 .406 0 .901-.018 1.52 0 .248-.106.531-.3.831a1.502 1.502 0 01-.283.354 1.47 1.47 0 01-.283.229v.266c.088 0 .141-.018.194-.018.354-.035.637-.071.867-.089.159.054.353.036.512.036zM85.654 78.984c-2.74 3.57-5.303 7-7.707 10.306-1.026 1.414-2.086 2.828-3.147 4.26a403.67 403.67 0 00-3.076 4.154 155.692 155.692 0 01-2.793 3.73 110.082 110.082 0 00-2.192 2.935h18.88v6.275h-31.29c2.687-3.571 5.25-7 7.708-10.306a204.918 204.918 0 013.182-4.26 252.448 252.448 0 003.111-4.154c.972-1.344 1.91-2.581 2.793-3.73a111.56 111.56 0 002.192-2.935H54.312v-6.275h31.342zm-48.295 0c2.192 0 4.225.406 6.116 1.237 1.892.83 3.536 1.944 4.95 3.394 1.414 1.432 2.528 3.111 3.359 5.003.813 1.909 1.22 3.96 1.22 6.17v15.874h-6.205V94.787a9.561 9.561 0 00-.725-3.694 10.134 10.134 0 00-2.015-3.04A9.555 9.555 0 0041.054 86a9.09 9.09 0 00-3.66-.742A9.322 9.322 0 0033.7 86a9.512 9.512 0 00-3.04 2.051 9.14 9.14 0 00-2.016 3.04c-.495 1.15-.725 2.387-.725 3.695 0 1.308.248 2.564.725 3.748a10.087 10.087 0 002.015 3.076 9.497 9.497 0 003.04 2.05 9.384 9.384 0 003.695.743h4.897v6.276h-4.932c-2.139 0-4.172-.407-6.081-1.238-1.91-.831-3.589-1.962-5.02-3.429-1.45-1.45-2.564-3.147-3.395-5.074-.813-1.927-1.22-3.977-1.22-6.134 0-2.21.407-4.26 1.22-6.17a15.48 15.48 0 013.394-5.002 16.349 16.349 0 015.02-3.394c1.928-.849 3.943-1.255 6.082-1.255zm80.946 0c-2.74 3.57-5.304 7-7.708 10.306-1.025 1.414-2.086 2.828-3.146 4.26a389.523 389.523 0 00-3.076 4.154 161.249 161.249 0 01-2.793 3.73 109.984 109.984 0 00-2.192 2.935h18.879v6.275h-31.29c2.688-3.571 5.251-7 7.708-10.306a204.562 204.562 0 013.182-4.26 257.198 257.198 0 003.112-4.154 156.69 156.69 0 012.793-3.73 115.28 115.28 0 002.192-2.935H86.962v-6.275h31.343z" fill="#4B2613"/><path d="M132.694 78.984c2.192 0 4.225.406 6.117 1.237 1.891.83 3.535 1.944 4.949 3.394 1.415 1.432 2.528 3.111 3.359 5.003.813 1.909 1.22 3.96 1.22 6.17v15.874h-6.205V94.787a9.548 9.548 0 00-.725-3.694 9.851 9.851 0 00-2.033-3.04A9.552 9.552 0 00136.371 86a9.09 9.09 0 00-3.659-.742 9.325 9.325 0 00-3.695.742 9.504 9.504 0 00-3.04 2.051 9.14 9.14 0 00-2.016 3.04c-.495 1.15-.724 2.387-.724 3.695 0 1.308.247 2.564.724 3.748a10.08 10.08 0 002.016 3.076 9.49 9.49 0 006.735 2.793h4.879v6.276h-4.897c-2.139 0-4.172-.407-6.081-1.238-1.909-.831-3.588-1.962-5.02-3.429-1.45-1.45-2.564-3.147-3.394-5.074-.814-1.927-1.22-3.977-1.22-6.134 0-2.21.406-4.26 1.22-6.17a15.47 15.47 0 013.394-5.002 16.342 16.342 0 015.02-3.394c1.927-.849 3.942-1.255 6.081-1.255z" fill="#4B2613"/></svg>