<svg width="170" height="50" fill="none" xmlns="http://www.w3.org/2000/svg"><path d="M5.919 49.5h-.001a5.45 5.45 0 01-3.834-1.574A5.365 5.365 0 01.91 46.182a5.33 5.33 0 01-.41-2.056V5.875h0a5.33 5.33 0 011.584-3.801A5.4 5.4 0 013.842.908 5.45 5.45 0 015.918.5h158.04a5.543 5.543 0 013.886 1.565 5.457 5.457 0 011.656 3.814V44a5.48 5.48 0 01-1.623 3.887 5.567 5.567 0 01-3.921 1.613H5.919z" stroke="#fff"/><path d="M38.023 24.75a7.337 7.337 0 013.5-6.125 7.341 7.341 0 00-5.875-3.124c-2.5-.25-4.875 1.5-6.125 1.5s-3.25-1.5-5.25-1.376a7.751 7.751 0 00-6.5 4c-2.875 4.875-.75 12.125 2 16.126 1.375 2 3 4.125 5 4s2.75-1.25 5.25-1.25c2.375 0 3.125 1.25 5.25 1.25s3.5-2 4.875-3.875a14.324 14.324 0 002.25-4.5c-.125-.25-4.25-1.876-4.375-6.626zm-4-11.875a6.865 6.865 0 001.625-5.125 8.224 8.224 0 00-4.75 2.375A6.617 6.617 0 0029.273 15a5.38 5.38 0 004.75-2.125zm33.375 26.5h-2.875l-1.5-4.875h-5.375l-1.5 4.875h-2.75l5.375-16.625h3.25l5.375 16.625zm-4.75-6.875l-1.375-4.375c-.125-.5-.375-1.5-.875-3.125-.125.75-.375 1.75-.75 3.125l-1.5 4.375h4.5zm18.625.75a6.975 6.975 0 01-1.625 4.875 5.133 5.133 0 01-3.625 1.625A3.56 3.56 0 0172.648 38v6.375h-2.625v-13c0-1.25 0-2.625-.125-4h2.375l.125 1.875a4.512 4.512 0 014-2.125 4.262 4.262 0 013.5 1.625 7.15 7.15 0 011.375 4.5zm-2.75.125a5.178 5.178 0 00-.75-2.875 2.903 2.903 0 00-2.375-1.125 2.986 2.986 0 00-1.75.625 3.096 3.096 0 00-1 1.75 2.22 2.22 0 00-.125.75v2a3.49 3.49 0 00.75 2.25 2.575 2.575 0 002.125.875 2.904 2.904 0 002.375-1.125 6.088 6.088 0 00.75-3.125zm16.5-.125a6.975 6.975 0 01-1.625 4.875 5.133 5.133 0 01-3.625 1.625A3.56 3.56 0 0186.398 38v6.375h-2.625v-13c0-1.25 0-2.625-.125-4h2.375l.125 1.875a4.512 4.512 0 014-2.125 4.262 4.262 0 013.5 1.625 7.15 7.15 0 011.375 4.5zm-2.75.125a5.178 5.178 0 00-.75-2.875 2.903 2.903 0 00-2.375-1.125 2.986 2.986 0 00-1.75.625 3.096 3.096 0 00-1 1.75 2.22 2.22 0 00-.125.75v2a3.49 3.49 0 00.75 2.25 2.575 2.575 0 002.125.875 2.903 2.903 0 002.375-1.125 6.088 6.088 0 00.75-3.125zm18.125 1.375a4.53 4.53 0 01-1.5 3.5 6.522 6.522 0 01-4.5 1.5 8.212 8.212 0 01-4.25-1l.625-2.25a7.02 7.02 0 003.875 1.125 4.444 4.444 0 002.375-.625 2.431 2.431 0 00.676-2.826 2.468 2.468 0 00-.551-.8 6.256 6.256 0 00-2.25-1.25c-2.875-1.124-4.375-2.624-4.375-4.75a4.286 4.286 0 011.5-3.374 6.034 6.034 0 014.125-1.25 8.346 8.346 0 013.75.75l-.75 2a6.775 6.775 0 00-3.125-.75 3.264 3.264 0 00-2.25.75 1.682 1.682 0 00-.625 1.5 2.025 2.025 0 00.75 1.625 8.14 8.14 0 002.375 1.25 8.979 8.979 0 013.125 2 3.862 3.862 0 011 2.875zm8.875-5.375h-2.875v5.875c0 1.5.5 2.25 1.5 2.25.38.036.763-.007 1.125-.125l.125 2a5.205 5.205 0 01-2.125.25 3.491 3.491 0 01-2.5-1 4.606 4.606 0 01-.875-3.25v-6h-1.75v-2h1.75v-2.25l2.625-.75v3h2.875c.104.661.146 1.33.125 2zm13.25 3.875a6.045 6.045 0 01-1.625 4.5 5.678 5.678 0 01-4.375 1.875 5.745 5.745 0 01-4.25-1.75 5.938 5.938 0 01-1.625-4.375 6.547 6.547 0 011.625-4.625 5.84 5.84 0 014.375-1.75 5.746 5.746 0 014.25 1.75 5.939 5.939 0 011.625 4.375zm-2.75.125a5.476 5.476 0 00-.75-2.875 2.456 2.456 0 00-2.375-1.375 2.884 2.884 0 00-2.5 1.375 5.184 5.184 0 00-.75 2.875 5.485 5.485 0 00.75 2.875 2.69 2.69 0 002.413 1.374 2.684 2.684 0 002.337-1.499 4.035 4.035 0 00.875-2.75zm11.375-3.625c-.25 0-.5-.125-.875-.125a2.317 2.317 0 00-2.125 1.125 3.568 3.568 0 00-.625 2.375v6.25h-2.625v-8.25a34.768 34.768 0 00-.125-3.75h2.375l.125 2.25h.125a4.094 4.094 0 011.375-1.875 3.725 3.725 0 011.875-.625h.625a19.51 19.51 0 00-.125 2.625zm12 3.125c.027.42-.015.843-.125 1.25h-8a3.488 3.488 0 001.125 2.75 4.127 4.127 0 002.625.875 9.386 9.386 0 003.25-.625l.375 1.875a9.929 9.929 0 01-4 .75 5.572 5.572 0 01-4.375-1.625 6.265 6.265 0 01-1.625-4.375 6.748 6.748 0 011.5-4.5 5.077 5.077 0 014.25-1.875 4.376 4.376 0 013.875 1.875 5.24 5.24 0 011.125 3.625zm-2.625-.75a3.407 3.407 0 00-.5-2A2.312 2.312 0 00147.898 29a2.453 2.453 0 00-2.125 1.125 3.156 3.156 0 00-.75 2.125l5.5-.125zM61.648 12.5a4.235 4.235 0 01-1.375 3.375 5.82 5.82 0 01-3.5 1 8.28 8.28 0 01-1.875-.125v-8a13.587 13.587 0 012.25-.125c1.152-.09 2.3.218 3.25.875a3.706 3.706 0 011.25 3zm-1.375 0a3.261 3.261 0 00-.75-2.25 3.055 3.055 0 00-2.25-.75 2.437 2.437 0 00-1 .125v6.125h.875a3.112 3.112 0 002.375-.875 2.89 2.89 0 00.75-2.375zm8.75 1.25a3.49 3.49 0 01-.75 2.25 2.574 2.574 0 01-2.125.875A2.741 2.741 0 0164.023 16a3.154 3.154 0 01-.75-2.125 3.49 3.49 0 01.75-2.25 2.576 2.576 0 012.125-.875 2.741 2.741 0 012.125.875c.503.592.77 1.348.75 2.125zm-1.375.125a2.52 2.52 0 00-.375-1.375 1.201 1.201 0 00-1.125-.75 1.52 1.52 0 00-1.25.75 2.709 2.709 0 000 2.75 1.255 1.255 0 001.25.75 1.2 1.2 0 001.125-.75 2.52 2.52 0 00.375-1.375zm11.25-3.001l-1.875 5.876h-1.25l-.75-2.5a10.424 10.424 0 01-.5-1.876c-.108.64-.275 1.267-.5 1.875l-.75 2.5h-1.25l-1.75-5.874h1.375l.625 2.75.375 1.874c.125-.5.25-1.125.5-1.875l.875-2.875h1.125l.75 2.75c.226.651.393 1.32.5 2 .125-.625.25-1.25.375-2l.75-2.75 1.375.125zm6.75 5.876h-1.25v-3.375c0-1-.375-1.5-1.125-1.5a1.29 1.29 0 00-1.375 1.375v3.5h-1.25v-5.875h1v.875c.17-.28.381-.532.625-.75.33-.235.721-.366 1.125-.375a1.882 1.882 0 011.375.5 2.424 2.424 0 01.625 2v3.625h.25zm3.625 0h-1.25v-8.5h1.25v8.5zm7.75-3a3.49 3.49 0 01-.75 2.25 2.574 2.574 0 01-2.125.875A2.741 2.741 0 0192.023 16a3.154 3.154 0 01-.75-2.125 3.49 3.49 0 01.75-2.25 2.576 2.576 0 012.125-.875 2.741 2.741 0 012.125.875c.503.592.77 1.348.75 2.125zm-1.375.125a2.52 2.52 0 00-.375-1.375 1.201 1.201 0 00-1.125-.75 1.52 1.52 0 00-1.25.75 2.709 2.709 0 000 2.75 1.255 1.255 0 001.25.75 1.2 1.2 0 001.125-.75 2.52 2.52 0 00.375-1.375zm7.625 2.875h-1.125l-.125-.625a2.096 2.096 0 01-1.75.75 1.877 1.877 0 01-1.374-.5 2.222 2.222 0 01-.5-1.25 1.696 1.696 0 01.874-1.625 3.925 3.925 0 012.5-.5v-.125c0-.75-.375-1.125-1.25-1.125a2.664 2.664 0 00-1.5.375l-.124-.875a3.406 3.406 0 011.999-.5c1.5 0 2.25.75 2.25 2.375v2.125c.086.495.128.997.125 1.5zm-1.375-2v-.875c-1.5 0-2.125.375-2.125 1.125.026.265.112.522.25.75a.959.959 0 00.625.25c.266-.026.522-.112.75-.25a1.145 1.145 0 00.5-.75v-.25zm8.875 2h-1.125v-1a1.94 1.94 0 01-1.875 1.125 2.027 2.027 0 01-1.75-.876 3.15 3.15 0 01-.749-2.125 3.6 3.6 0 01.749-2.375 2.668 2.668 0 011.875-.875 1.719 1.719 0 011.625.75V8.25h1.25v7a6.072 6.072 0 000 1.5zm-1.375-2.5v-1.376a1.139 1.139 0 00-.5-.75 1.127 1.127 0 00-.875-.375 1.312 1.312 0 00-1.125.625c-.27.452-.4.974-.375 1.5-.027.487.104.97.375 1.375a1.32 1.32 0 001.125.625 1.136 1.136 0 001-.5 1.53 1.53 0 00.375-1.125zm12.5-.5a3.486 3.486 0 01-.75 2.25 2.568 2.568 0 01-2.125.875 2.74 2.74 0 01-2.125-.875 3.156 3.156 0 01-.75-2.125c-.02-.815.245-1.61.75-2.25a2.582 2.582 0 012.125-.875 2.742 2.742 0 012.125.875c.503.592.77 1.348.75 2.125zm-1.25.125c.01-.485-.12-.963-.375-1.375a1.196 1.196 0 00-1.125-.75 1.519 1.519 0 00-1.25.75 2.714 2.714 0 000 2.75 1.26 1.26 0 001.25.75 1.2 1.2 0 001.125-.75c.255-.413.385-.89.375-1.375zm8.375 2.875h-1.25v-3.375c0-1-.375-1.5-1.25-1.5a1.288 1.288 0 00-1.295.834 1.294 1.294 0 00-.08.541v3.5h-1.25v-5.875h1.125v.875c.171-.28.381-.532.625-.75a2.115 2.115 0 011.25-.375 1.888 1.888 0 011.375.5 2.412 2.412 0 01.625 2v3.625h.125zm8.75-4.876h-1.5v2.875c0 .75.25 1.125.75 1.125h.625v1a2.442 2.442 0 01-1 .126 1.606 1.606 0 01-1.25-.5 2.842 2.842 0 01-.375-1.626v-3h-.875v-1h.875v-1l1.25-.374V11h1.5v.874zm7 4.876h-1.25v-3.376c0-1-.375-1.625-1.125-1.625a1.203 1.203 0 00-1.25.875v4h-1.25V8.25h1.25v3.5a1.997 1.997 0 011.75-1 1.888 1.888 0 011.375.5 2.576 2.576 0 01.625 2 32.974 32.974 0 00-.125 3.5zm7.125-3.126v.625h-4a1.795 1.795 0 00.625 1.375c.367.254.805.386 1.25.375a6.325 6.325 0 001.625-.25l.25.876a4.76 4.76 0 01-2 .375 2.942 2.942 0 01-2.125-.75 2.938 2.938 0 01-.75-2.126c-.02-.814.245-1.61.75-2.25a2.615 2.615 0 012-1 2.056 2.056 0 011.875 1c.386.498.565 1.124.5 1.75zm-1.25-.375a2.35 2.35 0 00-.25-1 1.242 1.242 0 00-1-.5 1.253 1.253 0 00-1 .5c-.25.272-.385.631-.375 1h2.625z" fill="#fff"/></svg>